<svg width="113" height="45" viewBox="0 0 113 45" fill="none" xmlns="http://www.w3.org/2000/svg">
<path d="M0.342495 4.16985C-0.275635 3.25443 -0.0346356 2.01125 0.880782 1.39312C1.7962 0.77499 3.03939 1.01599 3.65752 1.93141L2.00001 3.05063L0.342495 4.16985ZM66.9216 18.1665L65.9399 16.424L65.974 16.4048L66.0088 16.387L66.9216 18.1665ZM66.9216 3.05064L66.1952 4.91404L66.1787 4.90762L66.1623 4.9009L66.9216 3.05064ZM70.3386 24.3503L71.965 23.1863L72.0074 23.2456L72.0454 23.3078L70.3386 24.3503ZM111.371 22.385C112.457 22.59 113.17 23.6361 112.965 24.7215L109.624 42.4087C109.419 43.4941 108.373 44.2078 107.288 44.0028C106.203 43.7977 105.489 42.7517 105.694 41.6663L108.664 25.9443L92.9415 22.9746C91.8562 22.7696 91.1425 21.7235 91.3475 20.6382C91.5525 19.5528 92.5986 18.8391 93.684 19.0441L111.371 22.385ZM2.00001 3.05063L3.65752 1.93141C13.4106 16.3752 25.7696 21.7208 37.2515 22.6401C48.8339 23.5674 59.6131 19.9884 65.9399 16.424L66.9216 18.1665L67.9033 19.909C61.018 23.788 49.4505 27.6296 36.9322 26.6273C24.3134 25.617 10.8176 19.683 0.342495 4.16985L2.00001 3.05063ZM66.9216 18.1665L66.0088 16.387C69.2235 14.7379 70.9084 13.2599 71.7018 12.0897C72.425 11.0229 72.4133 10.2243 72.1609 9.53998C71.8607 8.72596 71.117 7.83327 69.9587 6.96343C68.8266 6.11327 67.4607 5.4074 66.1952 4.91404L66.9216 3.05064L67.6481 1.18724C69.1731 1.78177 70.8767 2.65047 72.3607 3.76494C73.8185 4.85973 75.2374 6.32173 75.9138 8.15586C76.6381 10.1197 76.4171 12.2627 75.0126 14.3343C73.6782 16.3025 71.3169 18.1597 67.8345 19.946L66.9216 18.1665ZM66.9216 3.05064L66.1623 4.9009C64.5842 4.25327 63.5318 4.02229 62.8832 4.00154C62.2658 3.98179 62.2898 4.14819 62.4003 4.01473C62.4513 3.95318 62.2992 4.08564 62.3411 4.77787C62.3808 5.43599 62.583 6.33401 62.9755 7.45887C64.5634 12.0087 68.6194 18.5114 71.965 23.1863L70.3386 24.3503L68.7121 25.5142C65.3378 20.799 60.9881 13.9035 59.1989 8.7769C58.7472 7.48265 58.4194 6.19417 58.3484 5.01917C58.2794 3.87827 58.4358 2.531 59.3192 1.46388C60.2623 0.324835 61.643 -0.0401812 63.0111 0.00358885C64.3482 0.0463595 65.9105 0.473842 67.6809 1.20038L66.9216 3.05064ZM70.3386 24.3503L72.0454 23.3078C76.2603 30.2093 83.0663 31.7683 90.3785 30.6938C97.7568 29.6096 105.246 25.8551 109.873 22.6981L111 24.3503L112.127 26.0024C107.187 29.3728 99.1288 33.451 90.96 34.6513C82.7253 35.8614 73.9842 34.1568 68.6317 25.3927L70.3386 24.3503Z" fill="#FF0080"/>
</svg>
