<svg width="115" height="40" viewBox="0 0 115 40" fill="none" xmlns="http://www.w3.org/2000/svg">
<path d="M0.614058 27.4245C-0.109199 28.2593 -0.0187343 29.5224 0.816116 30.2457C1.65097 30.9689 2.91406 30.8785 3.63732 30.0436L2.12569 28.7341L0.614058 27.4245ZM68.3899 21.4976L67.2067 23.1101L67.2382 23.1332L67.2706 23.1551L68.3899 21.4976ZM66.5806 36.5048L66.0824 34.5678L66.0653 34.5722L66.0482 34.577L66.5806 36.5048ZM72.5224 15.7673L73.9978 17.1175L74.047 17.0637L74.0922 17.0065L72.5224 15.7673ZM113.025 22.6298C114.127 22.5561 114.961 21.603 114.887 20.5009L113.687 2.54094C113.614 1.43882 112.66 0.605073 111.558 0.6787C110.456 0.752327 109.622 1.70545 109.696 2.80757L110.763 18.772L94.7982 19.8385C93.6961 19.9121 92.8624 20.8652 92.936 21.9674C93.0096 23.0695 93.9627 23.9032 95.0648 23.8296L113.025 22.6298ZM2.12569 28.7341L3.63732 30.0436C15.0491 16.8711 27.9591 13.0432 39.4685 13.5049C51.0786 13.9706 61.352 18.814 67.2067 23.1101L68.3899 21.4976L69.5731 19.8851C63.2016 15.2099 52.177 10.0114 39.6288 9.50807C26.9797 9.0007 12.8707 13.2767 0.614058 27.4245L2.12569 28.7341ZM68.3899 21.4976L67.2706 23.1551C70.2648 25.177 71.7607 26.8462 72.4083 28.1029C72.9986 29.2486 72.8915 30.04 72.559 30.6892C72.1635 31.4615 71.3182 32.2587 70.0641 32.9837C68.8385 33.6922 67.3978 34.2295 66.0824 34.5678L66.5806 36.5048L67.0788 38.4418C68.664 38.034 70.4593 37.3755 72.066 36.4467C73.6444 35.5342 75.2281 34.2526 76.1192 32.5126C77.0733 30.6496 77.1104 28.4956 75.964 26.2707C74.8748 24.1569 72.7527 22.0305 69.5091 19.8401L68.3899 21.4976ZM66.5806 36.5048L66.0482 34.577C64.4039 35.031 63.3315 35.1344 62.685 35.0774C62.0696 35.0231 62.1135 34.8607 62.2072 35.0065C62.2504 35.0737 62.1153 34.924 62.2397 34.2417C62.358 33.5931 62.6661 32.7257 63.1905 31.6559C65.3115 27.3289 70.1167 21.3584 73.9978 17.1175L72.5224 15.7673L71.047 14.417C67.1325 18.6944 61.9887 25.0197 59.5988 29.8953C58.9954 31.1262 58.5157 32.3662 58.3046 33.5242C58.0996 34.6487 58.0935 36.005 58.8429 37.1702C59.6428 38.4139 60.9699 38.9416 62.3335 39.0619C63.666 39.1794 65.2683 38.942 67.113 38.4326L66.5806 36.5048ZM72.5224 15.7673L74.0922 17.0065C79.1029 10.6592 86.0465 9.92599 93.1776 11.868C100.373 13.8275 107.359 18.4514 111.575 22.1396L112.891 20.6342L114.208 19.1289C109.707 15.1915 102.195 10.178 94.2286 8.00855C86.1979 5.82153 77.3156 6.46766 70.9526 14.5281L72.5224 15.7673Z" fill="#FF0080"/>
</svg>
