<svg width="54" height="54" viewBox="0 0 54 54" fill="none" xmlns="http://www.w3.org/2000/svg">
<path d="M26.885 53.7699C41.7331 53.7699 53.7699 41.7331 53.7699 26.885C53.7699 12.0368 41.7331 0 26.885 0C12.0368 0 0 12.0368 0 26.885C0 41.7331 12.0368 53.7699 26.885 53.7699Z" fill="url(#paint0_linear_1073_402)"/>
<path d="M31.3665 17.3257C33.0264 18.1507 34.167 19.8634 34.167 21.8427C34.167 23.8219 33.0264 25.5347 31.3665 26.3597M33.6069 32.223C35.3001 32.9891 36.8247 34.2378 38.0878 35.8453M15.6836 35.8453C17.8641 33.0701 20.8244 31.3644 24.0851 31.3644C27.3459 31.3644 30.3062 33.0701 32.4867 35.8453M29.1261 21.8427C29.1261 24.6267 26.8692 26.8836 24.0851 26.8836C21.3011 26.8836 19.0442 24.6267 19.0442 21.8427C19.0442 19.0586 21.3011 16.8018 24.0851 16.8018C26.8692 16.8018 29.1261 19.0586 29.1261 21.8427Z" stroke="white" stroke-width="2.00345" stroke-linecap="round" stroke-linejoin="round"/>
<defs>
<linearGradient id="paint0_linear_1073_402" x1="26.885" y1="0" x2="26.885" y2="53.7699" gradientUnits="userSpaceOnUse">
<stop stop-color="#FF0080"/>
<stop offset="1" stop-color="#7928CA"/>
</linearGradient>
</defs>
</svg>
