<svg width="73" height="73" viewBox="0 0 73 73" fill="none" xmlns="http://www.w3.org/2000/svg">
<g clip-path="url(#clip0_1095_545)">
<g clip-path="url(#clip1_1095_545)">
<path d="M72.9106 36.4553C72.9106 16.3216 56.589 0 36.4553 0C16.3216 0 0 16.3216 0 36.4553C0 56.589 16.3216 72.9106 36.4553 72.9106C56.589 72.9106 72.9106 56.589 72.9106 36.4553Z" fill="url(#paint0_linear_1095_545)"/>
<path d="M43.232 20.7129H28.8214C27.866 20.7129 26.9496 21.0925 26.274 21.7681C25.5983 22.4437 25.2188 23.3601 25.2188 24.3155V50.735C25.2188 51.6905 25.5983 52.6068 26.274 53.2824C26.9496 53.958 27.866 54.3376 28.8214 54.3376H43.232C44.1874 54.3376 45.1038 53.958 45.7794 53.2824C46.455 52.6068 46.8346 51.6905 46.8346 50.735V24.3155C46.8346 23.3601 46.455 22.4437 45.7794 21.7681C45.1038 21.0925 44.1874 20.7129 43.232 20.7129ZM44.4329 50.735C44.4329 51.0534 44.3063 51.3589 44.0811 51.5841C43.856 51.8093 43.5505 51.9358 43.232 51.9358H28.8214C28.5029 51.9358 28.1974 51.8093 27.9723 51.5841C27.7471 51.3589 27.6205 51.0534 27.6205 50.735V24.3155C27.6205 23.9971 27.7471 23.6916 27.9723 23.4664C28.1974 23.2412 28.5029 23.1147 28.8214 23.1147H43.232C43.5505 23.1147 43.856 23.2412 44.0811 23.4664C44.3063 23.6916 44.4329 23.9971 44.4329 24.3155V50.735ZM42.0311 26.7173C42.0311 27.0358 41.9045 27.3413 41.6794 27.5665C41.4542 27.7916 41.1487 27.9182 40.8302 27.9182H31.2232C30.9047 27.9182 30.5992 27.7916 30.374 27.5665C30.1489 27.3413 30.0223 27.0358 30.0223 26.7173C30.0223 26.3988 30.1489 26.0933 30.374 25.8682C30.5992 25.643 30.9047 25.5164 31.2232 25.5164H40.8302C41.1487 25.5164 41.4542 25.643 41.6794 25.8682C41.9045 26.0933 42.0311 26.3988 42.0311 26.7173Z" fill="white"/>
</g>
</g>
<defs>
<linearGradient id="paint0_linear_1095_545" x1="36.4553" y1="0" x2="36.4553" y2="72.9106" gradientUnits="userSpaceOnUse">
<stop stop-color="#FF0080"/>
<stop offset="1" stop-color="#7928CA"/>
</linearGradient>
<clipPath id="clip0_1095_545">
<rect width="72.9106" height="72.9106" fill="white"/>
</clipPath>
<clipPath id="clip1_1095_545">
<rect width="72.9106" height="72.9106" fill="white"/>
</clipPath>
</defs>
</svg>
