<svg width="73" height="73" viewBox="0 0 73 73" fill="none" xmlns="http://www.w3.org/2000/svg">
<g clip-path="url(#clip0_1095_539)">
<g clip-path="url(#clip1_1095_539)">
<g clip-path="url(#clip2_1095_539)">
<path d="M72.9106 36.4553C72.9106 16.3216 56.589 0 36.4553 0C16.3216 0 0 16.3216 0 36.4553C0 56.589 16.3216 72.9106 36.4553 72.9106C56.589 72.9106 72.9106 56.589 72.9106 36.4553Z" fill="url(#paint0_linear_1095_539)"/>
<path d="M48.986 23.9238H23.923C23.3187 23.9238 22.7392 24.1639 22.3119 24.5912C21.8846 25.0185 21.6445 25.598 21.6445 26.2023V46.7084C21.6445 47.3126 21.8846 47.8922 22.3119 48.3195C22.7392 48.7468 23.3187 48.9869 23.923 48.9869H48.986C49.5903 48.9869 50.1698 48.7468 50.5971 48.3195C51.0244 47.8922 51.2645 47.3126 51.2645 46.7084V26.2023C51.2645 25.598 51.0244 25.0185 50.5971 24.5912C50.1698 24.1639 49.5903 23.9238 48.986 23.9238ZM48.986 26.2023V28.4807H23.923V26.2023H48.986ZM48.986 46.7084H23.923V30.7592H48.986V46.7084ZM43.2899 34.1769C43.2899 35.9897 42.5698 37.7283 41.2878 39.0102C40.0059 40.2921 38.2674 41.0123 36.4545 41.0123C34.6416 41.0123 32.9031 40.2921 31.6212 39.0102C30.3392 37.7283 29.6191 35.9897 29.6191 34.1769C29.6191 33.8748 29.7392 33.5849 29.9528 33.3713C30.1664 33.1577 30.4562 33.0377 30.7584 33.0377C31.0605 33.0377 31.3503 33.1577 31.5639 33.3713C31.7775 33.5849 31.8976 33.8748 31.8976 34.1769C31.8976 35.3855 32.3777 36.5445 33.2323 37.3991C34.0868 38.2537 35.2459 38.7338 36.4545 38.7338C37.6631 38.7338 38.8222 38.2537 39.6767 37.3991C40.5313 36.5445 41.0114 35.3855 41.0114 34.1769C41.0114 33.8748 41.1315 33.5849 41.3451 33.3713C41.5587 33.1577 41.8485 33.0377 42.1506 33.0377C42.4528 33.0377 42.7426 33.1577 42.9562 33.3713C43.1698 33.5849 43.2899 33.8748 43.2899 34.1769Z" fill="white"/>
</g>
</g>
</g>
<defs>
<linearGradient id="paint0_linear_1095_539" x1="36.4553" y1="0" x2="36.4553" y2="72.9106" gradientUnits="userSpaceOnUse">
<stop stop-color="#FF0080"/>
<stop offset="1" stop-color="#7928CA"/>
</linearGradient>
<clipPath id="clip0_1095_539">
<rect width="72.9106" height="72.9106" rx="36.4553" fill="white"/>
</clipPath>
<clipPath id="clip1_1095_539">
<rect width="72.9106" height="72.9106" fill="white"/>
</clipPath>
<clipPath id="clip2_1095_539">
<rect width="72.9106" height="72.9106" fill="white"/>
</clipPath>
</defs>
</svg>
