<svg width="54" height="54" viewBox="0 0 54 54" fill="none" xmlns="http://www.w3.org/2000/svg">
<path d="M26.885 53.7699C41.7331 53.7699 53.7699 41.7331 53.7699 26.885C53.7699 12.0368 41.7331 0 26.885 0C12.0368 0 0 12.0368 0 26.885C0 41.7331 12.0368 53.7699 26.885 53.7699Z" fill="url(#paint0_linear_1073_413)"/>
<path d="M38.0876 23.4466C38.0876 22.768 38.0876 22.4287 37.9534 22.2715C37.837 22.1352 37.6622 22.0629 37.4836 22.0769C37.2776 22.0932 37.0376 22.3331 36.5578 22.813L32.4866 26.8842L36.5578 30.9554C37.0376 31.4352 37.2776 31.6752 37.4836 31.6913C37.6622 31.7055 37.837 31.6331 37.9534 31.4967C38.0876 31.3396 38.0876 31.0002 38.0876 30.3216V23.4466Z" stroke="white" stroke-width="2.00345" stroke-linecap="round" stroke-linejoin="round"/>
<path d="M15.6833 24.42C15.6833 22.5379 15.6833 21.5968 16.0496 20.878C16.3718 20.2457 16.8859 19.7315 17.5182 19.4093C18.2371 19.043 19.1782 19.043 21.0603 19.043H27.1095C28.9916 19.043 29.9326 19.043 30.6516 19.4093C31.2839 19.7315 31.798 20.2457 32.1202 20.878C32.4864 21.5968 32.4864 22.5379 32.4864 24.42V29.3489C32.4864 31.2311 32.4864 32.1721 32.1202 32.891C31.798 33.5233 31.2839 34.0374 30.6516 34.3596C29.9326 34.7259 28.9916 34.7259 27.1095 34.7259H21.0603C19.1782 34.7259 18.2371 34.7259 17.5182 34.3596C16.8859 34.0374 16.3718 33.5233 16.0496 32.891C15.6833 32.1721 15.6833 31.2311 15.6833 29.3489V24.42Z" stroke="white" stroke-width="2.00345" stroke-linecap="round" stroke-linejoin="round"/>
<defs>
<linearGradient id="paint0_linear_1073_413" x1="26.885" y1="0" x2="26.885" y2="53.7699" gradientUnits="userSpaceOnUse">
<stop stop-color="#FF0080"/>
<stop offset="1" stop-color="#7928CA"/>
</linearGradient>
</defs>
</svg>
