<svg width="82" height="94" viewBox="0 0 82 94" fill="none" xmlns="http://www.w3.org/2000/svg">
<path d="M43.0672 0.0783702C48.2186 2.9779e-07 53.3322 0.0407524 58.4427 0C58.6126 6.36677 61.2056 12.0972 65.3311 16.3417L65.3248 16.3354C69.765 20.3197 75.5427 22.9028 81.9119 23.3417L82 23.348V39.1348C75.9832 38.9843 70.3252 37.6019 65.2241 35.2257L65.4822 35.3323C63.015 34.1505 60.9287 32.9373 58.9462 31.5831L59.1098 31.6897C59.072 43.1285 59.1476 54.5674 59.0311 65.9655C58.707 71.7743 56.7685 77.0721 53.6595 81.4953L53.7224 81.3981C48.5238 88.815 40.1028 93.6834 30.527 93.9718H30.4829C30.0958 93.9906 29.6395 94 29.1801 94C23.736 94 18.6476 92.489 14.3112 89.8652L14.4371 89.9373C6.5448 85.2069 1.10074 77.1129 0.0937502 67.6991L0.081163 67.5705C0.00249169 65.6113 -0.0352708 63.652 0.0434005 61.7335C1.58536 46.7524 14.1854 35.163 29.5011 35.163C31.2224 35.163 32.9091 35.3103 34.5486 35.5893L34.3724 35.5643C34.4511 41.3605 34.2151 47.1599 34.2151 52.9561C32.8839 52.4765 31.3483 52.1975 29.7465 52.1975C23.8682 52.1975 18.8679 55.9404 17.0175 61.1661L16.9892 61.2602C16.5707 62.5987 16.3284 64.1379 16.3284 65.7304C16.3284 66.3762 16.3693 67.0157 16.4448 67.6426L16.4385 67.5674C17.4833 73.9812 23.0028 78.8213 29.6584 78.8213C29.8504 78.8213 30.0392 78.8182 30.228 78.8088H30.1997C34.8035 78.6708 38.8 76.2038 41.0595 72.558L41.0909 72.5016C41.9311 71.3354 42.507 69.9248 42.699 68.3918L42.7021 68.348C43.0955 61.3354 42.9381 54.3636 42.9759 47.3511C43.0137 31.5643 42.9381 15.815 43.0546 0.0689657L43.0672 0.0783702Z" fill="url(#paint0_linear_314_218)"/>
<defs>
<linearGradient id="paint0_linear_314_218" x1="41" y1="0" x2="41" y2="94" gradientUnits="userSpaceOnUse">
<stop stop-color="#7928CA"/>
<stop offset="1" stop-color="#FF0080"/>
</linearGradient>
</defs>
</svg>
