<svg width="39" height="39" viewBox="0 0 39 39" fill="none" xmlns="http://www.w3.org/2000/svg">
<path fill-rule="evenodd" clip-rule="evenodd" d="M32.2322 27.9199C33.9497 25.3496 34.8663 22.3277 34.8663 19.2364C34.862 15.0924 33.2139 11.1194 30.2836 8.18918C27.3534 5.25895 23.3804 3.61082 19.2364 3.60645C16.145 3.60645 13.1232 4.52313 10.5529 6.24057C7.98253 7.958 5.9792 10.3991 4.79621 13.255C3.61321 16.1111 3.30369 19.2537 3.90678 22.2857C4.50987 25.3175 5.99846 28.1025 8.18436 30.2884C10.3702 32.4743 13.1553 33.9629 16.1871 34.566C19.2191 35.1691 22.3618 34.8596 25.2177 33.6765C28.0737 32.4936 30.5148 30.4903 32.2322 27.9199ZM26.1868 16.3805C26.6016 15.8621 26.5175 15.1055 25.999 14.6907C25.4804 14.2759 24.7238 14.36 24.309 14.8784L17.9344 22.8468L14.6762 19.5885C14.2067 19.119 13.4454 19.119 12.9759 19.5885C12.5064 20.0582 12.5064 20.8193 12.9759 21.2888L16.2341 24.5471C17.2475 25.5605 18.9168 25.468 19.812 24.3489L26.1868 16.3805Z" fill="url(#paint0_linear_1050_627)"/>
<defs>
<linearGradient id="paint0_linear_1050_627" x1="19.2364" y1="3.60645" x2="19.2364" y2="34.8663" gradientUnits="userSpaceOnUse">
<stop stop-color="#FF0080"/>
<stop offset="1" stop-color="#7928CA"/>
</linearGradient>
</defs>
</svg>
