<svg width="13" height="12" viewBox="0 0 13 12" fill="none" xmlns="http://www.w3.org/2000/svg">
<path d="M0.900003 10.0495C0.520665 10.3944 0.492709 10.9815 0.837562 11.3608C1.18241 11.7401 1.76949 11.7681 2.14883 11.4232L1.52441 10.7364L0.900003 10.0495ZM12.6624 1.49801C12.6868 0.98593 12.2914 0.551039 11.7794 0.526654L3.43453 0.129281C2.92245 0.104897 2.48756 0.500252 2.46317 1.01233C2.43879 1.52441 2.83414 1.9593 3.34622 1.98369L10.7639 2.33691L10.4106 9.75453C10.3862 10.2666 10.7816 10.7015 11.2937 10.7259C11.8058 10.7503 12.2407 10.3549 12.265 9.84284L12.6624 1.49801ZM1.52441 10.7364L2.14883 11.4232L12.3596 2.14071L11.7352 1.45386L11.1108 0.767005L0.900003 10.0495L1.52441 10.7364Z" fill="url(#paint0_linear_314_187)"/>
<defs>
<linearGradient id="paint0_linear_314_187" x1="6.62981" y1="1.45386" x2="6.62981" y2="10.7364" gradientUnits="userSpaceOnUse">
<stop stop-color="#7928CA"/>
<stop offset="1" stop-color="#FF0080"/>
</linearGradient>
</defs>
</svg>
