<svg width="64" height="90" viewBox="0 0 64 90" fill="none" xmlns="http://www.w3.org/2000/svg">
<path d="M41.8855 37.0366C43.9427 39.7146 43.5343 43.5687 41.162 45.967L34.6551 52.545C33.1899 54.0261 30.8102 54.0261 29.3451 52.545L22.8382 45.967C20.4657 43.5687 20.0574 39.7146 22.1146 37.0366C24.6002 33.8009 29.2279 33.5843 32.0001 36.3869C34.7722 33.5845 39.3999 33.8009 41.8855 37.0366ZM62.3129 15.859L58.3181 19.9555C58.1139 20.1653 57.88 20.3307 57.6346 20.4748V81.6864C57.6346 86.1021 54.0418 89.6948 49.6261 89.6948H14.3888C9.97318 89.6948 6.38038 86.1021 6.38038 81.6864V77.3434C6.12871 77.1974 5.88866 77.0291 5.67964 76.814L1.68642 72.7191C-0.342327 70.6373 -0.569167 67.4385 1.16086 65.2752C2.12448 64.0724 3.54619 63.3388 5.06179 63.2653C5.50686 63.2407 5.94872 63.2863 6.38038 63.376V8.00847C6.38038 3.5928 9.97318 0 14.3888 0H49.6261C53.5386 0 56.7923 2.82459 57.486 6.53931C57.9551 6.4296 58.4412 6.37995 58.9376 6.40537C60.4532 6.47885 61.8751 7.21243 62.8385 8.4153C62.8385 8.4153 62.8385 8.4153 62.8401 8.4153C64.5683 10.577 64.3431 13.7772 62.3129 15.859ZM25.6005 81.679H38.4141C40.1833 81.679 41.6174 80.2447 41.6174 78.4756C41.6174 76.7065 40.1833 75.2722 38.4141 75.2722H25.6005C23.8314 75.2722 22.3971 76.7065 22.3971 78.4756C22.3971 80.2447 23.8314 81.679 25.6005 81.679ZM54.431 68.8654V20.4833C54.1793 20.3373 53.9393 20.1689 53.7302 19.9539L49.737 15.859C48.4791 14.5682 47.9175 12.8482 48.0819 11.2119H9.58357V63.3726C10.0068 63.2861 10.4413 63.2413 10.8865 63.2653C12.4021 63.3388 13.8241 64.0724 14.7875 65.2752C14.7875 65.2752 14.7875 65.2752 14.7891 65.2752C15.6182 66.3121 15.9857 67.5885 15.9321 68.8652H54.431V68.8654ZM7.97407 74.5789L11.9689 70.4823C12.8574 69.572 12.9966 68.1643 12.2864 67.2773C11.8906 66.783 11.3386 66.4953 10.7302 66.4655C10.1313 66.4361 9.56375 66.6617 9.13189 67.0974C8.84058 67.4001 8.43555 67.5917 7.98188 67.5917C7.97907 67.5917 7.97687 67.5901 7.97407 67.5901C7.96866 67.5901 7.96366 67.5869 7.95825 67.5869C7.74563 67.5835 7.54181 67.5434 7.35722 67.4651C7.23228 67.4131 7.13017 67.3212 7.02166 67.2391C6.9658 67.1961 6.89713 67.1702 6.84748 67.1204C6.84167 67.1146 6.83326 67.1128 6.82765 67.107C6.41942 66.6893 5.88906 66.4625 5.32286 66.4625C5.28843 66.4625 5.25399 66.4641 5.21815 66.4657C4.61131 66.4953 4.05752 66.7832 3.66191 67.2775C2.95336 68.1645 3.0925 69.5722 3.97944 70.4825L7.97407 74.5789ZM60.3372 10.4174C59.9414 9.92309 59.3894 9.63539 58.781 9.60556C58.1852 9.58233 57.6146 9.80197 57.1827 10.2376C56.8914 10.5401 56.4864 10.7317 56.0327 10.7317C56.0299 10.7317 56.0277 10.7301 56.0249 10.7301C56.0195 10.7301 56.0145 10.7269 56.0091 10.7269C55.7964 10.7235 55.5926 10.6835 55.408 10.6052C55.2831 10.5532 55.181 10.4613 55.0725 10.3792C55.0166 10.3361 54.9479 10.3103 54.8983 10.2605C54.8925 10.2546 54.8841 10.2528 54.8785 10.247C54.4702 9.8294 53.9399 9.60255 53.3737 9.60255C53.3392 9.60255 53.3048 9.60416 53.269 9.60576C52.6621 9.63539 52.1083 9.92329 51.7127 10.4176C51.0042 11.3046 51.1433 12.7122 52.0302 13.6226L56.0251 17.7191L60.0199 13.6226C60.9082 12.712 61.0474 11.3042 60.3372 10.4174Z" fill="url(#paint0_linear_1054_402)"/>
<defs>
<linearGradient id="paint0_linear_1054_402" x1="32" y1="0" x2="32" y2="89.6948" gradientUnits="userSpaceOnUse">
<stop stop-color="#FF0080"/>
<stop offset="1" stop-color="#7928CA"/>
</linearGradient>
</defs>
</svg>
