<svg width="54" height="54" viewBox="0 0 54 54" fill="none" xmlns="http://www.w3.org/2000/svg">
<path d="M26.885 53.7699C41.7331 53.7699 53.7699 41.7331 53.7699 26.885C53.7699 12.0368 41.7331 0 26.885 0C12.0368 0 0 12.0368 0 26.885C0 41.7331 12.0368 53.7699 26.885 53.7699Z" fill="url(#paint0_linear_1073_412)"/>
<path d="M36.9672 36.9655H18.5959C17.9684 36.9655 17.6548 36.9655 17.4151 36.8434C17.2044 36.736 17.033 36.5646 16.9256 36.3538C16.8035 36.1143 16.8035 35.8005 16.8035 35.1732V16.8018M36.9672 21.2825L30.8797 27.3701C30.6579 27.5919 30.547 27.7029 30.419 27.7445C30.3065 27.781 30.1853 27.781 30.0728 27.7445C29.945 27.7029 29.8341 27.5919 29.6123 27.3701L27.5191 25.2769C27.2973 25.0551 27.1863 24.9442 27.0584 24.9026C26.9459 24.8661 26.8247 24.8661 26.7122 24.9026C26.5844 24.9442 26.4735 25.0551 26.2517 25.2769L21.2844 30.2442M36.9672 21.2825H32.4864M36.9672 21.2825V25.7634" stroke="white" stroke-width="2.00345" stroke-linecap="round" stroke-linejoin="round"/>
<defs>
<linearGradient id="paint0_linear_1073_412" x1="26.885" y1="0" x2="26.885" y2="53.7699" gradientUnits="userSpaceOnUse">
<stop stop-color="#FF0080"/>
<stop offset="1" stop-color="#7928CA"/>
</linearGradient>
</defs>
</svg>
