<svg width="82" height="82" viewBox="0 0 82 82" fill="none" xmlns="http://www.w3.org/2000/svg">
<path d="M41 30.832C38.989 30.832 37.0231 31.4283 35.351 32.5456C33.6788 33.6629 32.3756 35.2509 31.606 37.1089C30.8364 38.9668 30.635 41.0113 31.0274 42.9837C31.4197 44.9561 32.3881 46.7678 33.8101 48.1899C35.2322 49.6119 37.0439 50.5803 39.0163 50.9726C40.9887 51.365 43.0332 51.1636 44.8911 50.394C46.7491 49.6244 48.3371 48.3212 49.4544 46.649C50.5717 44.9769 51.168 43.011 51.168 41C51.168 39.6647 50.905 38.3425 50.394 37.1089C49.883 35.8752 49.134 34.7543 48.1899 33.8101C47.2457 32.866 46.1248 32.117 44.8911 31.606C43.6575 31.095 42.3353 30.832 41 30.832ZM81.713 20.787C81.6914 17.6208 81.1084 14.4835 79.991 11.521C79.1681 9.35317 77.8948 7.38448 76.2551 5.74486C74.6155 4.10523 72.6468 2.83194 70.479 2.009C67.5165 0.891602 64.3792 0.30857 61.213 0.287C55.924 -2.74926e-07 54.366 0 41 0C27.634 0 26.076 -2.74926e-07 20.787 0.287C17.6208 0.30857 14.4835 0.891602 11.521 2.009C9.35317 2.83194 7.38448 4.10523 5.74486 5.74486C4.10523 7.38448 2.83194 9.35317 2.009 11.521C0.891602 14.4835 0.30857 17.6208 0.287 20.787C-2.74926e-07 26.076 0 27.634 0 41C0 54.366 -2.74926e-07 55.924 0.287 61.213C0.331132 64.3903 0.913375 67.5372 2.009 70.52C2.82829 72.6779 4.10053 74.6352 5.74 76.26C7.37259 77.9095 9.3455 79.1828 11.521 79.991C14.4835 81.1084 17.6208 81.6914 20.787 81.713C26.076 82 27.634 82 41 82C54.366 82 55.924 82 61.213 81.713C64.3792 81.6914 67.5165 81.1084 70.479 79.991C72.6545 79.1828 74.6274 77.9095 76.26 76.26C77.8995 74.6352 79.1717 72.6779 79.991 70.52C81.1073 67.5429 81.6902 64.3924 81.713 61.213C82 55.924 82 54.366 82 41C82 27.634 82 26.076 81.713 20.787ZM71.299 53.587C71.1674 56.1171 70.6274 58.6093 69.7 60.967C68.9041 62.9337 67.7208 64.7203 66.2205 66.2205C64.7203 67.7208 62.9337 68.9041 60.967 69.7C58.587 70.5757 56.0809 71.0603 53.546 71.135C50.307 71.135 49.446 71.135 41 71.135C32.554 71.135 31.693 71.135 28.454 71.135C25.9191 71.0603 23.413 70.5757 21.033 69.7C18.9998 68.9444 17.1637 67.7391 15.662 66.174C14.1764 64.7031 13.0292 62.9263 12.3 60.967C11.4208 58.5895 10.9495 56.0805 10.906 53.546C10.906 50.307 10.906 49.446 10.906 41C10.906 32.554 10.906 31.693 10.906 28.454C10.9495 25.9195 11.4208 23.4105 12.3 21.033C13.0556 18.9998 14.2609 17.1637 15.826 15.662C17.3034 14.1845 19.0784 13.0384 21.033 12.3C23.413 11.4243 25.9191 10.9397 28.454 10.865C31.693 10.865 32.554 10.865 41 10.865C49.446 10.865 50.307 10.865 53.546 10.865C56.0809 10.9397 58.587 11.4243 60.967 12.3C63.0002 13.0556 64.8363 14.2609 66.338 15.826C67.8236 17.2969 68.9708 19.0737 69.7 21.033C70.5757 23.413 71.0603 25.9191 71.135 28.454C71.135 31.693 71.135 32.554 71.135 41C71.135 49.446 71.422 50.307 71.299 53.546V53.587ZM64.739 23.083C64.2508 21.7586 63.4812 20.5559 62.4831 19.5579C61.4851 18.5598 60.2824 17.7902 58.958 17.302C57.1395 16.6717 55.2243 16.3663 53.3 16.4C50.102 16.4 49.2 16.4 41 16.4C32.8 16.4 31.898 16.4 28.7 16.4C26.7659 16.4189 24.8504 16.7798 23.042 17.466C21.7379 17.932 20.5479 18.6702 19.5512 19.6316C18.5544 20.593 17.7738 21.7556 17.261 23.042C16.6656 24.868 16.3747 26.7795 16.4 28.7C16.4 31.898 16.4 32.8 16.4 41C16.4 49.2 16.4 50.102 16.4 53.3C16.4406 55.2319 16.8009 57.1437 17.466 58.958C17.9542 60.2824 18.7238 61.4851 19.7219 62.4831C20.7199 63.4812 21.9226 64.2508 23.247 64.739C24.9963 65.3823 26.8372 65.7422 28.7 65.805C31.898 65.805 32.8 65.805 41 65.805C49.2 65.805 50.102 65.805 53.3 65.805C55.2341 65.7861 57.1496 65.4252 58.958 64.739C60.2824 64.2508 61.4851 63.4812 62.4831 62.4831C63.4812 61.4851 64.2508 60.2824 64.739 58.958C65.4252 57.1496 65.7861 55.2341 65.805 53.3C65.805 50.102 65.805 49.2 65.805 41C65.805 32.8 65.805 31.898 65.805 28.7C65.8062 26.764 65.4446 24.8449 64.739 23.042V23.083ZM41 56.662C38.9452 56.662 36.9105 56.2566 35.0126 55.469C33.1147 54.6814 31.3908 53.5271 29.9398 52.0722C28.4887 50.6173 27.3389 48.8904 26.5563 46.9905C25.7737 45.0905 25.3736 43.0548 25.379 41C25.379 37.9006 26.2986 34.8709 28.0214 32.2944C29.7442 29.7179 32.1927 27.7105 35.0569 26.5263C37.9212 25.3421 41.0724 25.0344 44.1116 25.642C47.1509 26.2497 49.9415 27.7454 52.1302 29.9399C54.3189 32.1343 55.8074 34.9289 56.407 37.9697C57.0067 41.0105 56.6907 44.1609 55.499 47.022C54.3073 49.8832 52.2935 52.3264 49.7125 54.0424C47.1315 55.7585 44.0994 56.6701 41 56.662ZM57.4 28.413C56.4937 28.3171 55.6549 27.8891 55.0453 27.2116C54.4357 26.5341 54.0984 25.6549 54.0984 24.7435C54.0984 23.8321 54.4357 22.9529 55.0453 22.2754C55.6549 21.5979 56.4937 21.1699 57.4 21.074C58.3063 21.1699 59.1451 21.5979 59.7547 22.2754C60.3643 22.9529 60.7016 23.8321 60.7016 24.7435C60.7016 25.6549 60.3643 26.5341 59.7547 27.2116C59.1451 27.8891 58.3063 28.3171 57.4 28.413Z" fill="url(#paint0_linear_314_219)"/>
<defs>
<linearGradient id="paint0_linear_314_219" x1="41" y1="0" x2="41" y2="82" gradientUnits="userSpaceOnUse">
<stop stop-color="#7928CA"/>
<stop offset="1" stop-color="#FF0080"/>
</linearGradient>
</defs>
</svg>
