<svg width="60" height="85" viewBox="0 0 60 85" fill="none" xmlns="http://www.w3.org/2000/svg">
<path d="M44.7582 28.0524C44.6066 27.8481 44.3676 27.728 44.1132 27.728L18.2728 27.7277L17.563 23.4735C17.5625 23.4687 17.5603 23.4644 17.5592 23.4601C17.5533 23.4291 17.5436 23.4002 17.5352 23.3709C17.5282 23.3491 17.5234 23.327 17.515 23.3062C17.5042 23.2795 17.4899 23.2553 17.4764 23.2302C17.4651 23.2089 17.4551 23.1868 17.4422 23.1672C17.4276 23.1454 17.4106 23.126 17.3944 23.1058C17.3782 23.0855 17.3634 23.0645 17.345 23.0465C17.328 23.0295 17.3086 23.0144 17.29 22.9988C17.2692 22.9813 17.2498 22.9624 17.2274 22.9476C17.2088 22.9347 17.1883 22.9252 17.1691 22.9139C17.1441 22.8994 17.1187 22.8835 17.0914 22.8716C17.0739 22.8641 17.0545 22.8592 17.0359 22.8525C17.0048 22.8412 16.9738 22.8301 16.9412 22.8231C16.9236 22.8193 16.9053 22.8183 16.8878 22.8156C16.853 22.8102 16.8187 22.8053 16.7828 22.8048C16.7785 22.8048 16.7747 22.8037 16.7709 22.8037L11.1681 22.804C10.7243 22.804 10.3652 23.1626 10.3652 23.6058C10.3652 24.049 10.7243 24.4077 11.1681 24.4077H16.0908L16.8006 28.6618C16.8006 28.6629 16.8017 28.664 16.8017 28.6651V28.671L19.5661 44.1402C19.6341 44.5225 19.9675 44.8011 20.3568 44.8011L39.4068 44.8008C39.7602 44.8008 40.0721 44.5699 40.1754 44.2326L44.8813 28.7634C44.9554 28.5196 44.9099 28.2561 44.7582 28.0524Z" fill="url(#paint0_linear_1054_409)"/>
<path d="M22.6887 46.2983C20.7197 46.2983 19.1182 47.9264 19.1182 49.9267C19.1182 51.9268 20.72 53.554 22.6887 53.554C24.6577 53.554 26.2587 51.9265 26.2587 49.9267C26.2587 47.9264 24.6571 46.2983 22.6887 46.2983Z" fill="url(#paint1_linear_1054_409)"/>
<path d="M37.0853 46.2983C35.1171 46.2983 33.5156 47.9264 33.5156 49.9267C33.5156 51.9268 35.1173 53.554 37.0853 53.554C39.0542 53.554 40.6561 51.9265 40.6561 49.9267C40.6561 47.9264 39.0542 46.2983 37.0853 46.2983Z" fill="url(#paint2_linear_1054_409)"/>
<path d="M53.5472 0.00176571H5.94977C4.40893 -0.0361935 2.91667 0.539518 1.80025 1.60235C0.684683 2.66519 0.0365664 4.12799 0 5.6682V79.3318C0.036552 80.8719 0.684665 82.3349 1.80025 83.3977C2.91651 84.4605 4.40884 85.0362 5.94977 84.9982H53.5472C55.0874 85.0362 56.5798 84.4605 57.696 83.3977C58.8116 82.3348 59.4597 80.872 59.497 79.3318V5.6682C59.4597 4.12806 58.8116 2.66515 57.696 1.60235C56.5798 0.539518 55.0874 -0.0362043 53.5472 0.00176571ZM32.9355 76.568C32.9355 76.9441 32.7864 77.304 32.5207 77.5697C32.255 77.8354 31.8944 77.9844 31.519 77.9844H27.9067C27.1517 77.9472 26.5598 77.3237 26.5605 76.568V76.497C26.5598 75.742 27.1517 75.1185 27.9067 75.0806H31.5901C31.9662 75.0806 32.3254 75.2296 32.5911 75.4953C32.8568 75.761 33.0065 76.1216 33.0065 76.497L32.9355 76.568ZM53.8298 66.7366C53.8298 67.0713 53.6969 67.3918 53.46 67.6287C53.2238 67.8649 52.9033 67.9977 52.5687 67.9977H6.92551C6.2296 67.9977 5.66514 67.4333 5.66514 66.7366V9.76185C5.66514 9.42795 5.798 9.10742 6.03419 8.87053C6.27037 8.63434 6.59093 8.50149 6.92551 8.50149H52.5687C52.9033 8.50149 53.2238 8.63434 53.46 8.87053C53.6969 9.10742 53.8298 9.42797 53.8298 9.76185V66.7366Z" fill="url(#paint3_linear_1054_409)"/>
<defs>
<linearGradient id="paint0_linear_1054_409" x1="27.6407" y1="22.8037" x2="27.6407" y2="44.8011" gradientUnits="userSpaceOnUse">
<stop stop-color="#FF0080"/>
<stop offset="1" stop-color="#7928CA"/>
</linearGradient>
<linearGradient id="paint1_linear_1054_409" x1="22.6884" y1="46.2983" x2="22.6884" y2="53.554" gradientUnits="userSpaceOnUse">
<stop stop-color="#FF0080"/>
<stop offset="1" stop-color="#7928CA"/>
</linearGradient>
<linearGradient id="paint2_linear_1054_409" x1="37.0859" y1="46.2983" x2="37.0859" y2="53.554" gradientUnits="userSpaceOnUse">
<stop stop-color="#FF0080"/>
<stop offset="1" stop-color="#7928CA"/>
</linearGradient>
<linearGradient id="paint3_linear_1054_409" x1="29.7485" y1="0" x2="29.7485" y2="85" gradientUnits="userSpaceOnUse">
<stop stop-color="#FF0080"/>
<stop offset="1" stop-color="#7928CA"/>
</linearGradient>
</defs>
</svg>
