<svg width="30" height="30" viewBox="0 0 30 30" fill="none" xmlns="http://www.w3.org/2000/svg">
<path d="M18.6431 19.744L17.9668 20.456C17.9668 20.456 16.3593 22.1483 11.9718 17.5291C7.58435 12.9098 9.19174 11.2175 9.19174 11.2175L9.6176 10.7692C10.6667 9.66471 10.7656 7.89149 9.8503 6.59696L7.97803 3.94888C6.84517 2.34664 4.65614 2.13498 3.35769 3.502L1.02719 5.95559C0.383357 6.63342 -0.0480886 7.5121 0.00423492 8.48684C0.138087 10.9805 1.20367 16.3458 7.14967 22.606C13.4551 29.2444 19.3715 29.5082 21.7909 29.2695C22.5562 29.1939 23.2217 28.7813 23.758 28.2166L25.8672 25.996C27.291 24.4971 26.8895 21.9274 25.0678 20.8789L22.2312 19.2461C21.035 18.5576 19.5779 18.7598 18.6431 19.744Z" fill="url(#paint0_linear_314_62)"/>
<path d="M15.233 0.93511C15.3313 0.328 15.9051 -0.0838316 16.5123 0.0144457C16.5498 0.0216469 16.6708 0.0442451 16.7341 0.0583505C16.8609 0.086576 17.0376 0.130006 17.2579 0.194193C17.6986 0.322537 18.3142 0.533983 19.053 0.872705C20.5323 1.55089 22.5008 2.73723 24.5436 4.77998C26.5863 6.82273 27.7726 8.79126 28.4507 10.2705C28.7896 11.0094 29.001 11.625 29.1293 12.0656C29.1934 12.286 29.2369 12.4627 29.2651 12.5894C29.2792 12.6527 29.2896 12.7036 29.2968 12.7412L29.3054 12.7875C29.4035 13.3946 28.9955 13.9923 28.3884 14.0906C27.783 14.1886 27.2127 13.7787 27.1121 13.1745C27.1089 13.1582 27.1003 13.1147 27.0913 13.0735C27.0729 12.9913 27.0412 12.8609 26.9911 12.6884C26.8905 12.3435 26.7161 11.8307 26.4262 11.1987C25.8475 9.93617 24.8067 8.19278 22.9687 6.35482C21.1308 4.51688 19.3874 3.47607 18.1249 2.89726C17.4928 2.60749 16.9801 2.43298 16.635 2.33249C16.4627 2.28226 16.2459 2.23251 16.1636 2.2142C15.5593 2.11349 15.135 1.54048 15.233 0.93511Z" fill="url(#paint1_linear_314_62)"/>
<path fill-rule="evenodd" clip-rule="evenodd" d="M15.5688 6.05682C15.7378 5.46546 16.3541 5.12304 16.9455 5.29199L16.6396 6.36274C16.9455 5.29199 16.9455 5.29199 16.9455 5.29199L16.9477 5.29262L16.95 5.29327L16.9549 5.29471L16.9664 5.29816L16.9958 5.3073C17.0181 5.31446 17.0462 5.32378 17.0794 5.33562C17.1461 5.35928 17.2343 5.39293 17.3424 5.43925C17.5587 5.53196 17.8542 5.67513 18.2174 5.88999C18.944 6.3201 19.9361 7.03454 21.1017 8.20004C22.2672 9.36556 22.9816 10.3577 23.4117 11.0844C23.6265 11.4475 23.7697 11.743 23.8625 11.9593C23.9088 12.0674 23.9425 12.1556 23.9661 12.2222C23.978 12.2556 23.9872 12.2835 23.9945 12.3059L24.0035 12.3353L24.0069 12.3468L24.0084 12.3518L24.009 12.354C24.009 12.354 24.0098 12.3562 22.9389 12.6621L24.0098 12.3562C24.1787 12.9475 23.8362 13.5638 23.245 13.7328C22.6586 13.9003 22.0476 13.5652 21.8726 12.983L21.8671 12.967C21.8592 12.9447 21.8429 12.9008 21.8154 12.8367C21.7605 12.7085 21.6609 12.4988 21.4952 12.2188C21.1641 11.6594 20.5661 10.8142 19.5268 9.77489C18.4876 8.73562 17.6423 8.1377 17.083 7.80664C16.803 7.64091 16.5933 7.54128 16.465 7.48634C16.4009 7.45886 16.3569 7.44247 16.3347 7.43455L16.3186 7.42908C15.7366 7.25405 15.4013 6.64314 15.5688 6.05682Z" fill="url(#paint2_linear_314_62)"/>
<defs>
<linearGradient id="paint0_linear_314_62" x1="13.3629" y1="2.59831" x2="13.3629" y2="29.3242" gradientUnits="userSpaceOnUse">
<stop stop-color="#7928CA"/>
<stop offset="1" stop-color="#FF0080"/>
</linearGradient>
<linearGradient id="paint1_linear_314_62" x1="22.2694" y1="-4.95911e-05" x2="22.2694" y2="14.1051" gradientUnits="userSpaceOnUse">
<stop stop-color="#7928CA"/>
<stop offset="1" stop-color="#FF0080"/>
</linearGradient>
<linearGradient id="paint2_linear_314_62" x1="19.7893" y1="5.24886" x2="19.7893" y2="13.7759" gradientUnits="userSpaceOnUse">
<stop stop-color="#7928CA"/>
<stop offset="1" stop-color="#FF0080"/>
</linearGradient>
</defs>
</svg>
