<svg width="56" height="60" viewBox="0 0 56 60" fill="none" xmlns="http://www.w3.org/2000/svg">
<path d="M1.87622 0H7.26204L10.7313 10.6753H11.0668L14.3753 0H19.8073L13.5838 15.6255V26.7102H8.23798V16.1227L1.87622 0ZM20.373 11.5028C20.373 9.93551 21.0169 8.68992 22.3057 7.76004C23.5929 6.83027 25.3232 6.36539 27.4972 6.36539C29.4768 6.36539 31.0981 6.85664 32.3611 7.83609C33.6274 8.81555 34.2588 10.0758 34.2588 11.6197V22.0729C34.2588 23.8038 33.6375 25.1634 32.3992 26.1489C31.1595 27.1342 29.4518 27.6284 27.28 27.6284C25.1872 27.6284 23.5132 27.1195 22.2566 26.1021C21.0017 25.0846 20.373 23.7162 20.373 21.9939V11.5028ZM25.2963 22.3739C25.2963 22.9324 25.465 23.3593 25.8065 23.6664C26.1472 23.9705 26.6332 24.1195 27.2656 24.1195C27.9139 24.1195 28.4293 23.9675 28.8101 23.6576C29.1917 23.3448 29.3833 22.9178 29.3833 22.3739V11.3507C29.3833 10.9091 29.1874 10.5524 28.7985 10.2805C28.4097 10.0085 27.8986 9.87105 27.2656 9.87105C26.6829 9.87105 26.2077 10.0085 25.8438 10.2805C25.4782 10.5524 25.2963 10.9091 25.2963 11.3507V22.3739ZM51.7557 6.69V26.9296H46.9647V24.6956C46.0803 25.5203 45.1622 26.1458 44.206 26.5787C43.2514 27.0056 42.323 27.222 41.4252 27.222C40.3172 27.222 39.4809 26.9208 38.9194 26.3184C38.358 25.716 38.0773 24.8126 38.0773 23.6079V6.69H42.8697V22.2045C42.8697 22.6869 42.9706 23.0319 43.1709 23.2482C43.3728 23.4618 43.6973 23.5699 44.1461 23.5699C44.4998 23.5699 44.9458 23.4266 45.482 23.143C46.0216 22.8594 46.5156 22.4968 46.9645 22.0553V6.69H51.7557ZM47.266 42.5112C47.0307 42.2509 46.6563 42.1165 46.1417 42.1165C45.6038 42.1165 45.2179 42.2509 44.984 42.5112C44.7501 42.7743 44.6331 43.21 44.6331 43.8182V45.0784H47.6183V43.8182C47.6183 43.21 47.5013 42.7743 47.266 42.5112ZM33.1068 51.9994C33.364 52.1046 33.636 52.1543 33.9225 52.1543C34.3377 52.1543 34.6389 52.0548 34.8349 51.8502C35.0306 51.6484 35.1271 51.3122 35.1271 50.8502V43.5637C35.1271 43.0726 35.0072 42.7013 34.7676 42.4468C34.5263 42.1924 34.1741 42.0667 33.7179 42.0667C33.4767 42.0667 33.2384 42.1134 33.0029 42.2071C32.7675 42.3035 32.5352 42.4527 32.3056 42.6514V51.4876C32.5805 51.7274 32.8479 51.897 33.1068 51.9994ZM55.3304 36.5727C55.3304 33.064 51.7264 30.2189 47.285 30.2189C40.9489 30.0054 34.4651 29.9119 27.8504 29.9235C21.2378 29.9118 14.754 30.0053 8.41563 30.2189C3.97645 30.2189 0.372702 33.0639 0.372702 36.5727C0.105866 39.3475 -0.00968051 42.1252 0.000631992 44.903C-0.00956332 47.6807 0.105866 50.4584 0.372702 53.2362C0.372702 56.742 3.97645 59.5868 8.41563 59.5868C14.754 59.7974 21.2378 59.891 27.8504 59.8822C34.4651 59.891 40.9489 59.7974 47.285 59.5868C51.7264 59.5868 55.3304 56.742 55.3304 53.2362C55.5964 50.4584 55.7117 47.6807 55.7 44.903C55.7117 42.1252 55.5964 39.3475 55.3304 36.5727ZM12.0595 54.2537V54.4643H8.25403V54.2537V37.6341H4.317V37.4265V34.7775V34.57H15.9973V34.7775V37.4265V37.6341H12.0595V54.2537ZM25.5966 39.941V54.2537V54.4643H22.218V54.2537V52.8591C21.5937 53.4525 20.9467 53.8999 20.2736 54.2099C19.599 54.5168 18.9454 54.6718 18.3109 54.6718C17.5302 54.6718 16.9417 54.4554 16.5455 54.0255C16.1486 53.5929 15.9504 52.9438 15.9504 52.0782V51.8677V39.941V39.7334H19.3306V39.941V50.8648C19.3306 51.207 19.4008 51.4583 19.5418 51.6104C19.6844 51.7654 19.9138 51.8414 20.2304 51.8414C20.4796 51.8414 20.7932 51.7391 21.1734 51.5373C21.552 51.3326 21.8999 51.0724 22.218 50.7566V39.941V39.7334H25.5966V39.941ZM38.6052 43.4V51.2449V51.4555C38.6052 52.4877 38.3406 53.2771 37.8115 53.8268C37.2821 54.3707 36.516 54.6455 35.5161 54.6455C34.8552 54.6455 34.2678 54.5402 33.75 54.3297C33.2311 54.1162 32.7502 53.7887 32.3057 53.3471V54.2536V54.4642H28.895V54.2536V34.7774V34.5698H32.3057V34.7774V40.9059C32.7619 40.4614 33.2443 40.1252 33.756 39.8972C34.2692 39.6662 34.7883 39.5493 35.3115 39.5493C36.3787 39.5493 37.1975 39.8592 37.7602 40.4791C38.3231 41.0989 38.6052 42.0025 38.6052 43.1897V43.4ZM51.0963 43.8445V47.3329V47.5434H44.6331V50.0725C44.6331 50.8357 44.7441 51.3649 44.9664 51.6602C45.19 51.9557 45.5702 52.1047 46.1081 52.1047C46.6681 52.1047 47.0614 51.979 47.285 51.7275C47.5072 51.4789 47.6183 50.9263 47.6183 50.0725V49.2743V49.0638H51.0964V49.2743V50.1544V50.3648C51.0964 51.8531 50.6739 52.9731 49.8261 53.7274C48.9794 54.4819 47.7148 54.8561 46.0321 54.8561C44.519 54.8561 43.3291 54.4555 42.4591 53.6573C41.5907 52.8591 41.1551 51.7597 41.1551 50.3648V50.1544V43.8445V43.637C41.1551 42.3768 41.633 41.3504 42.5863 40.5551C43.5409 39.7627 44.7765 39.365 46.2881 39.365C47.8348 39.365 49.0218 39.7335 49.8524 40.4673C50.6799 41.2014 51.0964 42.2598 51.0964 43.637V43.8445H51.0963Z" fill="url(#paint0_linear_314_227)"/>
<defs>
<linearGradient id="paint0_linear_314_227" x1="27.8504" y1="0" x2="27.8504" y2="59.8828" gradientUnits="userSpaceOnUse">
<stop stop-color="#7928CA"/>
<stop offset="1" stop-color="#FF0080"/>
</linearGradient>
</defs>
</svg>
