<svg width="675" height="807" viewBox="0 0 675 807" fill="none" xmlns="http://www.w3.org/2000/svg">
<path d="M370.945 624.998C338.465 624.318 304.915 614.104 274.485 595.334C220.512 562.042 175.944 519.585 146.392 463.416C132.029 436.111 123.093 407.066 118.717 376.643C112.76 335.185 115.167 293.968 122.073 252.85C124.113 240.707 126.521 228.643 128 216.4C129.744 201.868 126.745 188.395 121.318 175.003C115.055 159.561 108.72 144.119 105.354 127.708C99.1824 97.6747 106.935 71.0692 126.837 48.1116C153.441 17.4283 187.93 1.18718 228.867 0.0477972C262.009 -0.871703 288.868 11.4216 304.884 41.5952C306.526 44.6835 307.863 47.9517 309.056 51.2399C312.514 60.7848 310.086 65.5821 300.222 68.6905C283.319 74.0176 267.192 81.0737 252.288 90.4886C196.713 125.609 161.061 174.523 150.809 238.848C138.915 313.517 172.67 375.833 242.363 409.725C267.885 422.138 295.111 427.695 323.052 431.183C356.909 435.411 390.776 439.729 424.051 447.394C445.759 452.402 467.099 458.618 486.134 470.522C514.013 487.962 521.47 511.53 506.842 540.484C488.184 577.424 460.07 604.789 419.359 618.131C404.884 622.879 389.97 625.038 370.945 624.998Z" fill="black"/>
<path d="M239.771 604.269C211.086 595.244 184.421 582.181 159.806 565.24C100.468 524.392 59.8068 470.072 38.4155 402.109C25.8785 362.28 22.3286 321.483 26.9292 280.165C32.9886 225.725 52.9416 176.392 85.7885 132.076C86.1864 131.546 86.4822 130.946 87.2677 129.667C89.6241 135.284 89.2568 140.311 90.4197 145.019C93.1944 156.193 96.7239 167.137 100.967 177.841C102.13 180.779 101.835 183.048 100.294 185.766C82.2488 217.629 71.3134 251.781 67.8961 288.011C63.4995 334.655 70.7728 379.591 90.5218 422.428C102.447 448.284 118.187 471.671 137.752 492.58C142.506 497.667 145.678 503.783 149.554 509.44C173.272 544.091 202.956 573.156 236.395 598.732C238.272 600.161 240.128 601.62 241.995 603.069C242.046 604.878 240.893 604.559 239.771 604.269Z" fill="#73AC56"/>
<path d="M593.539 94.3765C592.723 116.844 582.471 138.862 561.957 156.083C555.215 161.74 549.828 160.211 546.87 152.145C538.465 129.188 522.612 111.917 502.751 97.9945C481.717 83.2525 458.755 73.7077 432.202 74.5972C425.775 74.8171 422.429 69.9498 424.255 63.8631C435.823 25.2441 475.658 -0.52191 516.308 4.31546C560.998 9.64256 593.947 46.3926 593.539 94.3765Z" fill="black"/>
<path d="M622.745 346.07C622.255 373.834 616.522 403.528 599.589 430.184C582.441 457.159 558.204 472.421 524.826 471.092C508.699 470.452 496.998 462.656 490.857 448.074C484.869 433.852 487.481 420.599 498.079 409.155C506.689 399.87 517.124 392.614 527.111 384.868C540.444 374.534 553.868 364.32 562.774 349.628C572.424 333.706 576.463 316.076 579.544 298.126C580.931 290.08 582.788 282.154 585.318 274.369C587.123 268.842 589.653 264.114 596.406 263.584C602.027 263.145 605.75 266.063 608.963 273.309C618.828 295.497 622.653 318.834 622.745 346.07Z" fill="black"/>
<path d="M183.259 263.165C184.615 236.039 196.795 215.531 216.575 199.14C239.292 180.32 265.335 171.085 295.346 175.313C312.78 177.771 327 194.302 326.673 210.813C326.53 217.879 323.144 223.626 319.165 229.033C315.401 234.151 311.443 239.228 306.965 243.745C293.408 257.428 281.473 272.23 271.598 288.711C265.182 299.415 255.716 306.761 243.403 310.389C216.116 318.425 187.012 299.645 183.922 271.93C183.544 268.622 183.412 265.294 183.259 263.165Z" fill="black"/>
<path d="M441.648 174.573C483.278 174.543 523.418 202.398 536.435 241.107C542.239 258.377 542.984 276.018 531.957 292.009C514.666 317.085 478.789 319.134 457.969 296.526C456.715 295.167 455.358 293.838 454.45 292.269C442.321 271.23 425.989 253.41 409.484 235.719C408.117 234.25 407.005 232.551 405.751 230.972C397.621 220.698 393.652 209.554 399.875 197.09C406.557 183.698 417.635 175.942 432.997 174.613C435.854 174.363 438.761 174.573 441.648 174.573Z" fill="black"/>
<path d="M529.325 555.295C530.386 549.249 532.334 544.481 533.007 539.414C534.466 528.45 532.885 518.126 527.091 508.641C525.438 505.922 525.652 504.343 527.897 502.284C535.721 495.108 542.749 487.192 549.482 479.017C550.788 477.428 552.277 476.128 554.276 475.449C579.748 466.814 596.477 448.863 608.596 426.166C619.45 405.837 624.989 383.959 627.325 361.241C630.242 332.886 627.56 305.082 618.297 277.996C616.573 272.959 614.349 268.082 612.258 263.174C611.126 260.516 609.626 257.687 606.852 256.788C602.363 255.329 601.323 252.06 600.344 248.212C593.876 222.836 583.624 198.989 569.649 176.711C567.864 173.863 568.109 172.564 571.424 171.254C581.737 167.157 590.112 160.52 596.722 151.735C600.119 147.227 600.17 147.237 603.343 152.235C622.796 182.948 636.944 215.87 643.667 251.411C664.293 360.621 634.568 454.87 554.745 533.797C547.125 541.323 538.944 548.299 529.325 555.295Z" fill="#73AC56"/>
<path d="M298.631 9.99239C306.435 8.57317 314.524 8.07344 322.562 7.73362C355.868 6.34438 388.664 9.70255 420.828 18.4378C426.703 20.0369 426.714 19.997 423.255 24.9842C417.318 33.5696 412.626 42.8045 409.219 52.5892C408.046 55.9474 406.669 57.1268 403.037 56.2073C379.218 50.2105 354.981 47.7618 330.417 48.4615C327.816 48.5314 326.469 47.6519 325.418 45.3132C319.604 32.2903 311.239 21.1263 299.702 12.3711C299.08 11.8914 298.294 11.4116 298.631 9.99239Z" fill="#73AC56"/>
<path d="M361.581 296.237C370.068 296.167 378.035 296.547 385.808 298.585C388.083 299.185 390.378 299.945 392.459 301.024C401.385 305.642 401.752 312.638 393.448 318.295C390.225 320.494 386.624 321.983 382.982 323.372C378.861 324.951 374.811 326.66 371.455 329.599C364.009 336.125 365.937 346.929 375.25 350.597C382.421 353.416 389.562 352.096 396.774 350.597C399.936 349.938 404.19 347.249 406.077 352.096C407.954 356.904 403.303 358.503 400.201 360.032C385.522 367.288 369.731 368.967 353.614 367.708C343.984 366.958 334.344 365.539 325.551 361.151C323.144 359.952 320.849 358.493 318.696 356.894C317.105 355.704 316.523 353.935 317.452 351.986C318.462 349.868 320.226 349.168 322.491 349.618C325.816 350.287 329.101 351.117 332.447 351.707C337.69 352.626 342.913 352.646 348.003 350.747C357.613 347.169 359.704 336.085 352.012 329.499C348.626 326.6 344.606 324.811 340.455 323.312C336.456 321.863 332.62 320.084 329.172 317.625C322.134 312.608 322.368 306.191 329.795 301.684C334.365 298.905 339.577 297.986 344.79 297.216C350.513 296.367 356.287 296.087 361.581 296.237Z" fill="black"/>
<path d="M239.771 604.269C240.598 604.019 241.577 604.039 242.005 603.07C243.26 603.55 244.586 603.939 244.78 605.658C242.73 606.418 241.24 605.359 239.771 604.269Z" fill="#A0BE93"/>
<path d="M457.021 725.968C457.01 750.584 456.87 775.21 457.086 799.826C457.129 804.436 456.232 806.143 451.241 805.991C439.13 805.621 439.119 805.893 439.119 793.694C439.108 764.36 439.184 735.036 439 705.702C438.979 701.461 440.027 699.972 444.391 700.2C451.392 700.559 458.436 700.603 465.427 700.189C469.824 699.928 471.25 701.755 472.039 705.724C476.641 728.947 481.438 752.139 486.192 775.33C486.516 776.917 487.023 778.461 487.434 780.027C488.255 781.038 488.73 782.147 488.428 783.169C489.109 779.799 489.098 776.069 489.098 772.329C489.076 749.953 489.184 727.577 489.001 705.213C488.968 701.168 490.059 699.559 494.122 700.102C498.324 700.668 502.657 699.243 506.805 700.842C506.838 734.297 506.816 767.752 507 801.196C507.021 805.186 505.563 806.045 501.954 805.915C494.953 805.665 487.931 805.61 480.941 805.904C476.717 806.089 475.042 804.664 474.221 800.391C469.294 774.678 464.065 749.029 458.933 723.359C458.793 722.652 458.501 721.978 458.285 721.293C455.282 722.163 457.075 724.316 457.021 725.968Z" fill="black"/>
<path d="M85.0833 754.114C84.9965 745.468 85.17 737.487 85.7341 729.495C87.1876 709.019 96.2013 699.774 116.604 698.138C123.004 697.626 129.284 698.574 135.337 700.395C144.676 703.197 150.175 712.018 150.815 724.327C151.238 732.417 151.238 732.417 143.396 732.395C142.496 732.395 141.585 732.417 140.684 732.384C137.267 732.286 133.222 733.279 130.618 731.763C127.852 730.149 129.935 725.712 129.241 722.583C128.243 718.145 126.084 714.907 121.225 714.242C114.901 713.37 110.584 715.31 108.599 720.184C107.081 723.924 106.549 727.925 106.527 731.916C106.473 745.719 106.527 759.533 106.636 773.336C106.658 775.68 107.016 778.046 107.395 780.369C108.925 789.745 119.663 794.695 127.928 789.996C129.599 789.047 129.501 787.761 129.501 786.332C129.512 780.521 129.328 774.699 129.577 768.899C129.729 765.388 128.319 764.298 125.152 764.821C120.791 765.54 119.175 764.069 119.348 759.326C119.717 749.208 119.446 749.208 129.729 749.197C135.51 749.197 141.302 749.317 147.073 749.088C150.229 748.957 151.021 750.135 151 753.155C150.869 768.593 150.924 784.043 150.913 799.481C150.913 801.291 151.13 803.167 148.526 803.57C135.499 805.587 122.516 808.346 109.239 806.252C94.5309 803.93 87.1767 795.796 85.9293 780.685C85.1917 771.635 84.8229 762.553 85.0833 754.114Z" fill="black"/>
<path d="M0.066089 742.121C0.066089 729.391 0.142149 716.662 0.000894857 703.932C-0.0317022 700.701 0.815822 699.314 4.26025 699.532C8.41094 699.794 12.6051 699.849 16.7341 699.511C20.7218 699.194 21.4824 700.81 21.4498 704.489C21.2759 725.581 21.3085 746.674 21.4063 767.766C21.428 772.843 21.754 777.952 22.3625 782.996C23.0036 788.291 26.448 790.845 31.6635 791.096C37.6614 791.391 41.6926 788.967 42.8335 783.825C43.5397 780.67 43.7245 777.341 43.7353 774.087C43.8114 750.997 43.8766 727.896 43.7136 704.806C43.681 700.897 44.3981 699.019 48.7009 699.532C54.0251 700.166 60.9249 697.262 64.3258 700.766C67.4769 704.009 65.2168 710.821 65.1951 716.05C65.0864 736.597 65.8036 757.143 64.7387 777.679C64.5757 780.932 64.1846 784.229 63.424 787.384C60.3924 799.863 52.9494 805.496 37.9765 806.785C31.8048 807.32 25.6657 806.85 19.6352 805.464C8.07411 802.822 1.0766 794.197 0.598508 780.834C0.131283 767.941 0.500717 755.025 0.500717 742.121C0.348597 742.121 0.207343 742.121 0.066089 742.121Z" fill="black"/>
<path d="M169 751.514C169.362 741.178 168.484 730.808 170.064 720.493C171.764 709.382 178.444 701.88 189.401 699.492C196.388 697.976 203.386 697.42 210.592 698.751C225.158 701.444 231.958 708.597 232.901 723.284C233.658 735.017 233.691 732.607 224.247 732.782C224.061 732.782 223.885 732.782 223.699 732.782C220.057 732.694 215.802 733.741 212.95 732.204C209.901 730.568 211.897 725.879 211.151 722.576C210.087 717.865 208.234 714.43 202.837 714.005C197.474 713.58 194.15 716.099 192.363 720.907C191.331 723.655 190.97 726.555 190.97 729.478C190.97 744.743 190.991 759.998 191.046 775.263C191.057 778.938 191.836 782.47 193.569 785.763C195.543 789.525 198.571 791.368 202.925 791.008C207.093 790.659 209.539 788.25 210.976 784.608C212.347 781.129 212.171 777.444 212.105 773.835C212.051 770.912 212.764 769.528 216.054 769.702C220.792 769.953 225.564 769.909 230.302 769.691C233.285 769.549 234.042 770.705 233.998 773.475C233.91 778.763 233.527 784.03 232.265 789.155C230.39 796.765 225.607 802.043 218.05 804.431C207.872 807.647 197.518 807.876 187.273 804.932C176.393 801.803 171.885 793.418 170.174 783.092C168.408 772.613 169.318 762.048 169 751.514Z" fill="black"/>
<path d="M526.078 752.955C526.078 737.176 526.187 721.407 526.002 705.628C525.958 701.618 526.635 699.809 531.282 700.016C542.159 700.506 553.069 700.114 563.935 700.572C580.463 701.269 589.857 709.922 591.58 726.278C593.446 743.976 593.5 761.76 591.58 779.468C589.758 796.337 581.816 803.737 564.851 805.251C553.254 806.287 541.625 805.567 530.028 805.992C526.275 806.134 525.969 804.314 526.024 801.35C526.166 793.188 526.1 785.037 526.111 776.875C526.122 768.898 526.111 760.921 526.111 752.944C526.1 752.955 526.089 752.955 526.078 752.955ZM547.701 752.53C547.701 763.58 547.658 774.63 547.756 785.68C547.767 787.194 546.687 789.221 549.698 789.832C562.495 792.436 570.59 786.497 570.885 773.486C571.19 760.267 571.168 747.038 570.874 733.819C570.579 720.394 565.473 715.893 551.923 715.719C548.629 715.675 547.527 716.471 547.592 719.914C547.81 730.779 547.669 741.655 547.669 752.519C547.68 752.53 547.69 752.53 547.701 752.53Z" fill="black"/>
<path d="M639.081 700.27C651.592 700.292 651.702 700.259 654.564 712.763C661.274 742.046 667.742 771.395 674.626 800.646C675.774 805.521 674.288 806.272 670.037 805.924C666.42 805.63 662.749 805.663 659.132 805.956C655.493 806.261 653.887 804.999 653.483 801.321C652.947 796.478 651.811 791.69 651.111 786.858C650.685 783.931 649.647 782.364 646.249 782.56C641.168 782.854 636.054 782.788 630.973 782.625C628.187 782.538 627.192 783.648 626.81 786.303C626.034 791.679 624.734 796.968 624.001 802.343C623.619 805.129 622.406 806.109 619.751 805.967C617.576 805.848 615.38 805.935 613.206 805.935C601.809 805.935 601.863 805.945 604.333 795.118C610.998 765.823 617.74 736.551 624.122 707.191C625.302 701.793 627.367 699.203 633.104 700.216C635.027 700.553 637.081 700.259 639.081 700.27ZM637.912 724.635C636.109 734.733 634.207 744.81 632.546 754.93C631.913 758.783 628.875 763.821 631.213 766.182C633.727 768.707 639.179 766.585 643.31 767.031C647.211 767.456 647.44 765.551 646.817 762.537C645.364 755.453 644.042 748.347 642.665 741.252C641.594 735.691 641.485 729.913 639.354 724.58C638.873 724.602 638.392 724.613 637.912 724.635Z" fill="black"/>
<path d="M412.745 805.992C401.998 806.013 401.998 806.013 400.3 795.21C398.328 782.64 398.328 782.64 385.664 782.749C374.982 782.836 374.982 782.836 373.284 793.411C371.247 806.046 371.247 806.057 358.462 805.992C347.594 805.937 349.555 806.439 351.593 797.401C358.396 767.17 365.418 736.983 371.959 706.698C373.131 701.269 375.399 699.623 380.657 700.07C385.73 700.506 390.868 700.299 395.962 700.113C398.92 700.004 399.971 701.138 400.607 704.005C407.706 735.849 414.958 767.661 422.189 799.472C423.679 806.013 423.701 806.003 417.117 805.981C415.66 805.992 414.202 805.992 412.745 805.992ZM385.269 726.343C383.571 735.588 381.983 744.854 380.23 754.088C377.579 768.042 377.787 768.315 392.007 767.029C392.182 767.007 392.369 767.018 392.555 767.029C394.472 767.127 395.107 766.298 394.757 764.39C392.193 750.403 389.695 736.394 387.132 722.189C385.39 723.41 385.521 724.969 385.269 726.343Z" fill="black"/>
<path d="M283.098 753.343C283.098 737.202 283.206 721.051 283.023 704.911C282.979 701.129 284.049 699.898 287.854 700.007C299.182 700.334 310.531 700.05 321.848 700.486C337.435 701.085 345.563 709.172 346.666 724.811C347.13 731.317 347.303 737.867 345.877 744.319C343.499 755.097 337.186 760.917 326.399 762.453C320.508 763.293 314.606 764.056 308.672 763.587C305.224 763.314 304.446 764.59 304.511 767.859C304.705 779.106 304.5 790.353 304.662 801.6C304.705 804.859 303.787 806.177 300.403 805.981C296.101 805.72 291.756 805.687 287.454 805.959C283.768 806.199 282.969 804.684 283.001 801.229C283.163 785.264 283.077 769.308 283.077 753.343C283.077 753.343 283.087 753.343 283.098 753.343ZM309.894 715.755C309.537 715.755 309.169 715.787 308.813 715.733C305.57 715.21 304.338 716.398 304.5 719.863C304.781 725.65 304.586 731.459 304.597 737.268C304.597 748.667 304.597 748.667 316.13 747.37C321.967 746.716 324.496 744.286 325.199 738.51C325.48 736.178 325.577 733.813 325.675 732.505C325.404 718.686 322.572 715.874 309.894 715.755Z" fill="black"/>
</svg>
