<svg viewBox="0 0 1607 625" fill="none" xmlns="http://www.w3.org/2000/svg">
<path d="M345.944 625C313.464 624.32 279.913 614.106 249.484 595.336C195.511 562.044 150.943 519.587 121.391 463.418C107.028 436.113 98.092 407.069 93.7159 376.645C87.7585 335.188 90.1659 293.97 97.072 252.852C99.1121 240.709 101.52 228.646 102.999 216.402C104.743 201.87 101.744 188.398 96.3171 175.005C90.0537 159.563 83.7189 144.122 80.3526 127.711C74.1811 97.6769 81.9338 71.0714 101.836 48.1138C128.44 17.4305 162.929 1.18937 203.865 0.0499945C237.008 -0.869505 263.867 11.4238 279.883 41.5974C281.525 44.6857 282.861 47.9539 284.055 51.2421C287.513 60.7869 285.085 65.5843 275.221 68.6927C258.318 74.0198 242.19 81.0759 227.287 90.4908C171.712 125.612 136.06 174.525 125.808 238.85C113.914 313.519 147.669 375.836 217.361 409.727C242.884 422.14 270.11 427.697 298.05 431.185C331.907 435.413 365.774 439.731 399.05 447.397C420.757 452.404 442.098 458.621 461.132 470.524C489.012 487.965 496.468 511.532 481.84 540.486C463.183 577.426 435.069 604.791 394.357 618.134C379.882 622.881 364.968 625.04 345.944 625Z" fill="black"/>
<path d="M214.77 604.271C186.085 595.246 159.42 582.183 134.805 565.242C75.4662 524.395 34.8053 470.074 13.414 402.111C0.877065 362.283 -2.67285 321.485 1.92776 280.168C7.98711 225.727 27.9401 176.394 60.7871 132.078C61.1849 131.548 61.4807 130.949 62.2662 129.669C64.6226 135.286 64.2554 140.314 65.4183 145.021C68.1929 156.195 71.7224 167.139 75.966 177.843C77.1289 180.782 76.8331 183.05 75.2928 185.769C57.2473 217.632 46.312 251.783 42.8946 288.013C38.4981 334.658 45.7713 379.593 65.5203 422.43C77.4452 448.286 93.1852 471.673 112.751 492.582C117.504 497.669 120.677 503.786 124.553 509.443C148.27 544.094 177.955 573.158 211.393 598.734C213.27 600.163 215.127 601.623 216.994 603.072C217.045 604.881 215.892 604.561 214.77 604.271Z" fill="black"/>
<path d="M568.538 94.3787C567.722 116.846 557.47 138.864 536.956 156.085C530.213 161.742 524.827 160.213 521.869 152.147C513.463 129.19 497.611 111.919 477.75 97.9967C456.715 83.2547 433.753 73.7099 407.2 74.5994C400.774 74.8193 397.428 69.952 399.254 63.8653C410.822 25.2463 450.656 -0.519713 491.307 4.31766C535.997 9.64476 568.946 46.3948 568.538 94.3787Z" fill="black"/>
<path d="M597.743 346.072C597.253 373.837 591.521 403.53 574.587 430.186C557.439 457.161 533.202 472.423 499.825 471.094C483.697 470.454 471.996 462.658 465.855 448.076C459.868 433.854 462.479 420.601 473.078 409.157C481.687 399.872 492.123 392.616 502.11 384.871C515.442 374.536 528.867 364.322 537.772 349.63C547.422 333.708 551.462 316.078 554.542 298.128C555.93 290.082 557.786 282.156 560.316 274.371C562.122 268.844 564.651 264.116 571.404 263.587C577.025 263.147 580.748 266.065 583.962 273.311C593.826 295.499 597.651 318.837 597.743 346.072Z" fill="black"/>
<path d="M158.257 263.167C159.614 236.042 171.794 215.533 191.573 199.142C214.291 180.322 240.334 171.087 270.345 175.315C287.778 177.773 301.998 194.304 301.672 210.815C301.529 217.881 298.142 223.628 294.164 229.035C290.4 234.153 286.442 239.23 281.964 243.747C268.407 257.43 256.472 272.232 246.597 288.713C240.181 299.417 230.714 306.763 218.402 310.391C191.114 318.427 162.011 299.647 158.92 271.932C158.543 268.624 158.41 265.296 158.257 263.167Z" fill="black"/>
<path d="M416.646 174.575C458.276 174.545 498.417 202.4 511.433 241.109C517.238 258.379 517.982 276.02 506.955 292.011C489.664 317.088 453.788 319.136 432.968 296.529C431.713 295.169 430.356 293.84 429.448 292.271C417.32 271.232 400.988 253.412 384.483 235.722C383.116 234.253 382.004 232.553 380.749 230.974C372.619 220.7 368.651 209.556 374.874 197.093C381.555 183.7 392.633 175.944 407.996 174.615C410.852 174.365 413.759 174.575 416.646 174.575Z" fill="black"/>
<path d="M504.323 555.298C505.384 549.251 507.332 544.484 508.006 539.417C509.464 528.453 507.883 518.128 502.089 508.643C500.437 505.925 500.651 504.346 502.895 502.287C510.719 495.111 517.748 487.195 524.48 479.019C525.786 477.43 527.275 476.131 529.275 475.451C554.746 466.816 571.476 448.866 583.594 426.168C594.448 405.839 599.987 383.961 602.323 361.243C605.241 332.889 602.558 305.084 593.296 277.999C591.572 272.961 589.348 268.084 587.257 263.177C586.124 260.518 584.625 257.69 581.85 256.79C577.362 255.331 576.321 252.063 575.342 248.215C568.875 222.839 558.623 198.992 544.647 176.714C542.862 173.865 543.107 172.566 546.422 171.257C556.735 167.159 565.11 160.523 571.721 151.737C575.118 147.23 575.169 147.24 578.341 152.237C597.794 182.95 611.943 215.873 618.665 251.413C639.291 360.624 609.566 454.873 529.744 533.8C522.124 541.326 513.943 548.302 504.323 555.298Z" fill="black"/>
<path d="M273.629 9.99459C281.433 8.57536 289.522 8.07563 297.561 7.73582C330.867 6.34658 363.663 9.70475 395.826 18.44C401.702 20.0391 401.712 19.9991 398.254 24.9864C392.317 33.5718 387.625 42.8067 384.217 52.5914C383.044 55.9496 381.667 57.1289 378.036 56.2094C354.217 50.2127 329.979 47.764 305.415 48.4637C302.814 48.5336 301.468 47.6541 300.417 45.3154C294.602 32.2925 286.238 21.1285 274.7 12.3733C274.078 11.8936 273.293 11.4138 273.629 9.99459Z" fill="black"/>
<path d="M336.579 296.239C345.067 296.169 353.033 296.549 360.807 298.588C363.081 299.187 365.377 299.947 367.458 301.026C376.383 305.644 376.751 312.64 368.447 318.297C365.224 320.496 361.623 321.985 357.981 323.374C353.86 324.953 349.81 326.662 346.454 329.601C339.007 336.127 340.935 346.931 350.249 350.599C357.42 353.418 364.56 352.098 371.773 350.599C374.935 349.94 379.189 347.251 381.076 352.098C382.953 356.906 378.301 358.505 375.2 360.034C360.521 367.29 344.73 368.969 328.612 367.71C318.983 366.96 309.343 365.541 300.55 361.154C298.142 359.954 295.847 358.495 293.695 356.896C292.103 355.706 291.522 353.937 292.45 351.988C293.46 349.87 295.225 349.17 297.489 349.62C300.815 350.289 304.1 351.119 307.446 351.709C312.689 352.628 317.912 352.648 323.002 350.749C332.611 347.171 334.702 336.087 327.011 329.501C323.624 326.602 319.605 324.813 315.453 323.314C311.454 321.865 307.619 320.086 304.171 317.627C297.132 312.61 297.367 306.193 304.793 301.686C309.363 298.907 314.576 297.988 319.789 297.218C325.511 296.369 331.285 296.089 336.579 296.239Z" fill="black"/>
<path d="M1316.73 277.031C1316.72 309.907 1316.53 342.798 1316.82 375.674C1316.88 381.831 1315.67 384.111 1308.96 383.908C1292.68 383.414 1292.67 383.777 1292.67 367.484C1292.66 328.306 1292.76 289.142 1292.51 249.964C1292.48 244.3 1293.89 242.311 1299.76 242.616C1309.17 243.095 1318.63 243.153 1328.03 242.601C1333.94 242.253 1335.86 244.692 1336.92 249.993C1343.1 281.01 1349.55 311.984 1355.94 342.958C1356.37 345.078 1357.06 347.14 1357.61 349.231C1358.71 350.581 1359.35 352.062 1358.95 353.427C1359.86 348.926 1359.85 343.945 1359.85 338.95C1359.82 309.065 1359.96 279.18 1359.71 249.31C1359.67 243.908 1361.14 241.759 1366.6 242.485C1372.25 243.24 1378.07 241.338 1383.65 243.473C1383.69 288.154 1383.66 332.836 1383.91 377.504C1383.94 382.833 1381.98 383.98 1377.13 383.806C1367.72 383.472 1358.28 383.399 1348.88 383.791C1343.2 384.038 1340.95 382.136 1339.85 376.429C1333.23 342.086 1326.2 307.831 1319.3 273.546C1319.11 272.602 1318.72 271.702 1318.43 270.787C1314.39 271.949 1316.8 274.824 1316.73 277.031Z" fill="black"/>
<path d="M820.933 315.12C820.817 303.605 821.049 292.976 821.804 282.331C823.75 255.061 835.817 242.747 863.132 240.568C871.699 239.886 880.107 241.149 888.21 243.574C900.713 247.306 908.075 259.054 908.932 275.448C909.498 286.223 909.498 286.223 898.999 286.194C897.794 286.194 896.574 286.223 895.369 286.18C890.795 286.049 885.378 287.37 881.893 285.352C878.19 283.203 880.979 277.293 880.049 273.125C878.713 267.215 875.823 262.902 869.318 262.016C860.852 260.855 855.073 263.439 852.415 269.93C850.382 274.911 849.671 280.24 849.642 285.555C849.569 303.939 849.642 322.338 849.787 340.721C849.816 343.843 850.295 346.995 850.803 350.088C852.851 362.576 867.227 369.169 878.292 362.91C880.528 361.647 880.398 359.933 880.398 358.031C880.412 350.291 880.165 342.537 880.499 334.811C880.703 330.135 878.815 328.683 874.575 329.38C868.737 330.339 866.573 328.378 866.806 322.062C867.299 308.586 866.936 308.586 880.703 308.571C888.442 308.571 896.197 308.731 903.922 308.426C908.148 308.252 909.208 309.82 909.179 313.843C909.005 334.405 909.077 354.981 909.063 375.543C909.063 377.954 909.353 380.452 905.868 380.989C888.428 383.675 871.046 387.349 853.272 384.561C833.581 381.468 823.736 370.635 822.066 350.509C821.078 338.456 820.585 326.36 820.933 315.12Z" fill="black"/>
<path d="M708.088 299.321C708.088 282.389 708.19 265.458 708.001 248.526C707.958 244.228 709.09 242.383 713.694 242.674C719.241 243.022 724.846 243.095 730.364 242.645C735.693 242.224 736.71 244.373 736.666 249.267C736.434 277.322 736.477 305.377 736.608 333.432C736.637 340.184 737.073 346.98 737.886 353.689C738.743 360.732 743.346 364.13 750.316 364.464C758.332 364.856 763.719 361.632 765.244 354.792C766.188 350.596 766.435 346.167 766.449 341.839C766.551 311.127 766.638 280.4 766.42 249.688C766.377 244.489 767.335 241.991 773.085 242.674C780.201 243.516 789.422 239.653 793.967 244.315C798.178 248.628 795.158 257.689 795.129 264.645C794.983 291.974 795.942 319.303 794.519 346.617C794.301 350.944 793.778 355.33 792.762 359.526C788.71 376.124 778.763 383.617 758.753 385.331C750.505 386.042 742.3 385.418 734.241 383.574C718.79 380.059 709.439 368.588 708.8 350.814C708.175 333.664 708.669 316.485 708.669 299.321C708.466 299.321 708.277 299.321 708.088 299.321Z" fill="black"/>
<path d="M933.516 311.795C933.995 298.029 932.834 284.219 934.925 270.482C937.176 255.685 946.019 245.694 960.526 242.514C969.776 240.496 979.04 239.755 988.581 241.527C1007.86 245.113 1016.87 254.639 1018.12 274.199C1019.12 289.824 1019.16 286.615 1006.66 286.847C1006.41 286.847 1006.18 286.847 1005.93 286.847C1001.11 286.731 995.478 288.125 991.703 286.078C987.666 283.9 990.309 277.656 989.321 273.256C987.913 266.982 985.459 262.408 978.314 261.842C971.213 261.276 966.813 264.63 964.446 271.034C963.081 274.693 962.602 278.556 962.602 282.448C962.602 302.777 962.631 323.093 962.704 343.422C962.718 348.316 963.749 353.021 966.044 357.406C968.658 362.416 972.665 364.87 978.43 364.391C983.948 363.926 987.187 360.717 989.089 355.867C990.904 351.235 990.672 346.327 990.585 341.52C990.512 337.628 991.456 335.784 995.812 336.016C1002.09 336.35 1008.4 336.292 1014.68 336.002C1018.63 335.813 1019.63 337.352 1019.57 341.041C1019.45 348.084 1018.94 355.097 1017.27 361.922C1014.79 372.058 1008.46 379.086 998.455 382.267C984.979 386.55 971.271 386.855 957.709 382.935C943.304 378.767 937.335 367.6 935.07 353.849C932.732 339.894 933.937 325.823 933.516 311.795Z" fill="black"/>
<path d="M1408.36 313.131C1408.36 292.104 1408.51 271.092 1408.26 250.065C1408.2 244.721 1409.1 242.311 1415.29 242.587C1429.77 243.24 1444.29 242.717 1458.75 243.327C1480.75 244.257 1493.25 255.787 1495.55 277.583C1498.03 301.165 1498.1 324.864 1495.55 348.461C1493.12 370.94 1482.55 380.8 1459.97 382.818C1444.53 384.198 1429.05 383.24 1413.62 383.806C1408.62 383.995 1408.22 381.57 1408.29 377.62C1408.48 366.743 1408.39 355.882 1408.4 345.005C1408.42 334.376 1408.4 323.746 1408.4 313.116C1408.39 313.131 1408.38 313.131 1408.36 313.131ZM1437.14 312.565C1437.14 327.289 1437.08 342.014 1437.21 356.738C1437.23 358.757 1435.79 361.458 1439.8 362.271C1456.83 365.741 1467.61 357.827 1468 340.489C1468.41 322.875 1468.38 305.246 1467.99 287.632C1467.59 269.741 1460.8 263.744 1442.76 263.512C1438.38 263.454 1436.91 264.514 1437 269.103C1437.29 283.58 1437.1 298.072 1437.1 312.55C1437.11 312.565 1437.13 312.565 1437.14 312.565Z" fill="black"/>
<path d="M1559.27 242.761C1575.89 242.79 1576.04 242.746 1579.84 259.431C1588.76 298.508 1597.36 337.672 1606.5 376.705C1608.03 383.211 1606.05 384.213 1600.4 383.748C1595.6 383.356 1590.72 383.399 1585.91 383.791C1581.08 384.198 1578.94 382.514 1578.4 377.605C1577.69 371.143 1576.18 364.754 1575.25 358.307C1574.69 354.4 1573.31 352.309 1568.79 352.571C1562.04 352.963 1555.24 352.876 1548.49 352.658C1544.79 352.542 1543.47 354.023 1542.96 357.566C1541.93 364.74 1540.2 371.797 1539.23 378.97C1538.72 382.688 1537.11 383.995 1533.58 383.806C1530.69 383.646 1527.77 383.762 1524.88 383.762C1509.73 383.762 1509.81 383.777 1513.09 369.328C1521.95 330.237 1530.91 291.175 1539.39 251.997C1540.95 244.794 1543.7 241.338 1551.32 242.688C1553.88 243.139 1556.61 242.746 1559.27 242.761ZM1557.71 275.274C1555.32 288.75 1552.79 302.196 1550.58 315.701C1549.74 320.842 1545.7 327.565 1548.81 330.716C1552.15 334.085 1559.4 331.254 1564.89 331.849C1570.07 332.415 1570.37 329.874 1569.55 325.852C1567.62 316.398 1565.86 306.916 1564.03 297.448C1562.61 290.028 1562.46 282.317 1559.63 275.201C1558.99 275.231 1558.35 275.245 1557.71 275.274Z" fill="black"/>
<path d="M1257.75 383.704C1243.5 383.733 1243.5 383.733 1241.25 369.343C1238.64 352.6 1238.64 352.6 1221.85 352.745C1207.69 352.861 1207.69 352.861 1205.44 366.947C1202.74 383.777 1202.74 383.791 1185.79 383.704C1171.39 383.632 1173.99 384.3 1176.69 372.261C1185.71 331.994 1195.01 291.785 1203.68 251.445C1205.24 244.213 1208.24 242.02 1215.21 242.616C1221.94 243.197 1228.75 242.921 1235.5 242.674C1239.42 242.529 1240.81 244.039 1241.66 247.858C1251.07 290.274 1260.68 332.647 1270.26 375.021C1272.24 383.733 1272.27 383.719 1263.54 383.69C1261.61 383.704 1259.68 383.704 1257.75 383.704ZM1221.33 277.612C1219.08 289.926 1216.97 302.269 1214.65 314.569C1211.13 333.156 1211.41 333.519 1230.26 331.805C1230.49 331.776 1230.74 331.791 1230.98 331.805C1233.53 331.936 1234.37 330.832 1233.9 328.291C1230.5 309.66 1227.19 291.001 1223.8 272.079C1221.49 273.706 1221.66 275.782 1221.33 277.612Z" fill="black"/>
<path d="M1084.76 313.712C1084.76 292.206 1084.9 270.685 1084.65 249.179C1084.6 244.14 1086.03 242.5 1091.14 242.645C1106.36 243.08 1121.61 242.703 1136.81 243.284C1157.75 244.082 1168.67 254.857 1170.15 275.695C1170.78 284.364 1171.01 293.092 1169.09 301.688C1165.9 316.05 1157.42 323.804 1142.93 325.852C1135.01 326.97 1127.08 327.986 1119.11 327.362C1114.48 326.999 1113.43 328.698 1113.52 333.054C1113.78 348.04 1113.51 363.026 1113.72 378.012C1113.78 382.354 1112.55 384.111 1108 383.849C1102.22 383.501 1096.39 383.457 1090.61 383.82C1085.66 384.14 1084.58 382.121 1084.62 377.518C1084.84 356.245 1084.73 334.985 1084.73 313.712C1084.73 313.712 1084.74 313.712 1084.76 313.712ZM1120.75 263.628C1120.27 263.628 1119.78 263.672 1119.3 263.599C1114.94 262.902 1113.29 264.485 1113.51 269.103C1113.88 276.813 1113.62 284.553 1113.64 292.293C1113.64 307.482 1113.64 307.482 1129.13 305.754C1136.97 304.883 1140.37 301.645 1141.32 293.948C1141.69 290.841 1141.82 287.69 1141.95 285.947C1141.59 267.534 1137.79 263.788 1120.75 263.628Z" fill="black"/>
</svg>
