<svg  viewBox="0 0 625 625" fill="none" xmlns="http://www.w3.org/2000/svg">
<g clip-path="url(#clip0_416_386)">
<path d="M345.944 625C313.464 624.32 279.913 614.106 249.484 595.336C195.511 562.044 150.943 519.587 121.391 463.418C107.028 436.113 98.092 407.069 93.7159 376.645C87.7585 335.188 90.1659 293.97 97.072 252.852C99.1121 240.709 101.52 228.646 102.999 216.402C104.743 201.87 101.744 188.398 96.3171 175.005C90.0537 159.563 83.7189 144.122 80.3526 127.711C74.1811 97.6769 81.9338 71.0714 101.836 48.1138C128.44 17.4305 162.929 1.18937 203.865 0.0499945C237.008 -0.869505 263.867 11.4238 279.883 41.5974C281.525 44.6857 282.861 47.9539 284.055 51.2421C287.513 60.7869 285.085 65.5843 275.221 68.6927C258.318 74.0198 242.19 81.0759 227.287 90.4908C171.712 125.612 136.06 174.525 125.808 238.85C113.914 313.519 147.669 375.836 217.361 409.727C242.884 422.14 270.11 427.697 298.05 431.185C331.907 435.413 365.774 439.731 399.05 447.397C420.757 452.404 442.098 458.621 461.132 470.524C489.012 487.965 496.468 511.532 481.84 540.486C463.183 577.426 435.069 604.791 394.357 618.134C379.882 622.881 364.968 625.04 345.944 625Z" fill="black"/>
<path d="M214.77 604.271C186.085 595.246 159.42 582.183 134.805 565.242C75.4662 524.395 34.8053 470.074 13.414 402.111C0.877065 362.283 -2.67285 321.485 1.92776 280.168C7.98711 225.727 27.9401 176.394 60.7871 132.078C61.1849 131.548 61.4807 130.949 62.2662 129.669C64.6226 135.286 64.2554 140.314 65.4183 145.021C68.1929 156.195 71.7224 167.139 75.966 177.843C77.1289 180.782 76.8331 183.05 75.2928 185.769C57.2473 217.632 46.312 251.783 42.8946 288.013C38.4981 334.658 45.7713 379.593 65.5203 422.43C77.4452 448.286 93.1852 471.673 112.751 492.582C117.504 497.669 120.677 503.786 124.553 509.443C148.27 544.094 177.955 573.158 211.393 598.734C213.27 600.163 215.127 601.623 216.994 603.072C217.045 604.881 215.892 604.561 214.77 604.271Z" fill="black"/>
<path d="M568.538 94.3787C567.722 116.846 557.47 138.864 536.956 156.085C530.213 161.742 524.827 160.213 521.869 152.147C513.463 129.19 497.611 111.919 477.75 97.9967C456.715 83.2547 433.753 73.7099 407.2 74.5994C400.774 74.8193 397.428 69.952 399.254 63.8653C410.822 25.2463 450.656 -0.519713 491.307 4.31766C535.997 9.64476 568.946 46.3948 568.538 94.3787Z" fill="black"/>
<path d="M597.743 346.072C597.253 373.837 591.521 403.53 574.587 430.186C557.439 457.161 533.202 472.423 499.825 471.094C483.697 470.454 471.996 462.658 465.855 448.076C459.868 433.854 462.479 420.601 473.078 409.157C481.687 399.872 492.123 392.616 502.11 384.871C515.442 374.536 528.867 364.322 537.772 349.63C547.422 333.708 551.462 316.078 554.542 298.128C555.93 290.082 557.786 282.156 560.316 274.371C562.122 268.844 564.651 264.116 571.404 263.587C577.025 263.147 580.748 266.065 583.962 273.311C593.826 295.499 597.651 318.837 597.743 346.072Z" fill="black"/>
<path d="M158.257 263.167C159.614 236.042 171.794 215.533 191.573 199.142C214.291 180.322 240.334 171.087 270.345 175.315C287.778 177.773 301.998 194.304 301.672 210.815C301.529 217.881 298.142 223.628 294.164 229.035C290.4 234.153 286.442 239.23 281.964 243.747C268.407 257.43 256.472 272.232 246.597 288.713C240.181 299.417 230.714 306.763 218.402 310.391C191.114 318.427 162.011 299.647 158.92 271.932C158.543 268.624 158.41 265.296 158.257 263.167Z" fill="black"/>
<path d="M416.646 174.575C458.276 174.545 498.417 202.4 511.433 241.109C517.238 258.379 517.982 276.02 506.955 292.011C489.664 317.088 453.788 319.136 432.968 296.529C431.713 295.169 430.356 293.84 429.448 292.271C417.32 271.232 400.988 253.412 384.483 235.722C383.116 234.253 382.004 232.553 380.749 230.974C372.619 220.7 368.651 209.556 374.874 197.093C381.555 183.7 392.633 175.944 407.996 174.615C410.852 174.365 413.759 174.575 416.646 174.575Z" fill="black"/>
<path d="M504.323 555.298C505.384 549.251 507.332 544.484 508.006 539.417C509.464 528.453 507.883 518.128 502.089 508.643C500.437 505.925 500.651 504.346 502.895 502.287C510.719 495.111 517.748 487.195 524.48 479.019C525.786 477.43 527.275 476.131 529.275 475.451C554.746 466.816 571.476 448.866 583.594 426.168C594.448 405.839 599.987 383.961 602.323 361.243C605.241 332.889 602.558 305.084 593.296 277.999C591.572 272.961 589.348 268.084 587.257 263.177C586.124 260.518 584.625 257.69 581.85 256.79C577.362 255.331 576.321 252.063 575.342 248.215C568.875 222.839 558.623 198.992 544.647 176.714C542.862 173.865 543.107 172.566 546.422 171.257C556.735 167.159 565.11 160.523 571.721 151.737C575.118 147.23 575.169 147.24 578.341 152.237C597.794 182.95 611.943 215.873 618.665 251.413C639.291 360.624 609.566 454.873 529.744 533.8C522.124 541.326 513.943 548.302 504.323 555.298Z" fill="black"/>
<path d="M273.629 9.99459C281.433 8.57536 289.522 8.07563 297.561 7.73582C330.867 6.34658 363.663 9.70475 395.826 18.44C401.702 20.0391 401.712 19.9991 398.254 24.9864C392.317 33.5718 387.625 42.8067 384.217 52.5914C383.044 55.9496 381.667 57.1289 378.036 56.2094C354.217 50.2127 329.979 47.764 305.415 48.4637C302.814 48.5336 301.468 47.6541 300.417 45.3154C294.602 32.2925 286.238 21.1285 274.7 12.3733C274.078 11.8936 273.293 11.4138 273.629 9.99459Z" fill="black"/>
<path d="M336.579 296.239C345.067 296.169 353.033 296.549 360.807 298.588C363.081 299.187 365.377 299.947 367.458 301.026C376.383 305.644 376.751 312.64 368.447 318.297C365.224 320.496 361.623 321.985 357.981 323.374C353.86 324.953 349.81 326.662 346.454 329.601C339.007 336.127 340.935 346.931 350.249 350.599C357.42 353.418 364.56 352.098 371.773 350.599C374.935 349.94 379.189 347.251 381.076 352.098C382.953 356.906 378.301 358.505 375.2 360.034C360.521 367.29 344.73 368.969 328.612 367.71C318.983 366.96 309.343 365.541 300.55 361.154C298.142 359.954 295.847 358.495 293.695 356.896C292.103 355.706 291.522 353.937 292.45 351.988C293.46 349.87 295.225 349.17 297.489 349.62C300.815 350.289 304.1 351.119 307.446 351.709C312.689 352.628 317.912 352.648 323.002 350.749C332.611 347.171 334.702 336.087 327.011 329.501C323.624 326.602 319.605 324.813 315.453 323.314C311.454 321.865 307.619 320.086 304.171 317.627C297.132 312.61 297.367 306.193 304.793 301.686C309.363 298.907 314.576 297.988 319.789 297.218C325.511 296.369 331.285 296.089 336.579 296.239Z" fill="black"/>
</g>
<defs>
<clipPath id="clip0_416_386">
<rect width="625" height="625" fill="white"/>
</clipPath>
</defs>
</svg>
