<?xml version="1.0" encoding="utf-8"?>
<!-- Generator: Adobe Illustrator 25.0.1, SVG Export Plug-In . SVG Version: 6.00 Build 0)  -->
<svg version="1.1" id="Layer_1" xmlns="http://www.w3.org/2000/svg" xmlns:xlink="http://www.w3.org/1999/xlink" x="0px" y="0px"
	 width="625px" height="625px" viewBox="0 0 625 625" style="enable-background:new 0 0 625 625;" xml:space="preserve">
<style type="text/css">
	.st0{clip-path:url(#SVGID_2_);}
</style>
<g>
	<defs>
		<rect id="SVGID_1_" width="625" height="625"/>
	</defs>
	<clipPath id="SVGID_2_">
		<use xlink:href="#SVGID_1_"  style="overflow:visible;"/>
	</clipPath>
	<g class="st0">
		<path d="M345.9,625c-32.5-0.7-66-10.9-96.5-29.7c-54-33.3-98.5-75.7-128.1-131.9c-14.4-27.3-23.3-56.3-27.7-86.8
			c-6-41.5-3.5-82.7,3.4-123.8c2-12.1,4.4-24.2,5.9-36.5c1.7-14.5-1.3-28-6.7-41.4c-6.3-15.4-12.6-30.9-16-47.3
			c-6.2-30,1.6-56.6,21.5-79.6c26.6-30.7,61.1-46.9,102-48.1c33.1-0.9,60,11.4,76,41.5c1.6,3.1,3,6.4,4.2,9.6
			c3.5,9.5,1,14.3-8.8,17.5c-16.9,5.3-33,12.4-47.9,21.8c-55.6,35.1-91.2,84-101.5,148.4c-11.9,74.7,21.9,137,91.6,170.9
			c25.5,12.4,52.7,18,80.7,21.5c33.9,4.2,67.7,8.5,101,16.2c21.7,5,43,11.2,62.1,23.1c27.9,17.4,35.3,41,20.7,70
			c-18.7,36.9-46.8,64.3-87.5,77.6C379.9,622.9,365,625,345.9,625z"/>
		<path d="M568.5,94.4c-0.8,22.5-11.1,44.5-31.6,61.7c-6.7,5.7-12.1,4.1-15.1-3.9c-8.4-23-24.3-40.2-44.1-54.2
			c-21-14.7-44-24.3-70.5-23.4c-6.4,0.2-9.8-4.6-7.9-10.7c11.6-38.6,51.4-64.4,92.1-59.5C536,9.6,568.9,46.4,568.5,94.4z"/>
		<path d="M597.7,346.1c-0.5,27.8-6.2,57.5-23.2,84.1c-17.1,27-41.4,42.2-74.8,40.9c-16.1-0.6-27.8-8.4-34-23
			c-6-14.2-3.4-27.5,7.2-38.9c8.6-9.3,19-16.5,29-24.3c13.3-10.3,26.8-20.5,35.7-35.2c9.7-15.9,13.7-33.6,16.8-51.5
			c1.4-8,3.2-16,5.8-23.8c1.8-5.5,4.3-10.3,11.1-10.8c5.6-0.4,9.3,2.5,12.6,9.7C593.8,295.5,597.7,318.8,597.7,346.1z"/>
		<path d="M158.3,263.2c1.4-27.1,13.5-47.6,33.3-64c22.7-18.8,48.8-28.1,78.8-23.8c17.4,2.5,31.7,19,31.3,35.5
			c-0.1,7.1-3.5,12.8-7.5,18.2c-3.8,5.1-7.7,10.2-12.2,14.7c-13.6,13.7-25.5,28.5-35.4,45c-6.4,10.7-15.9,18-28.2,21.7
			c-27.3,8-56.4-10.7-59.5-38.5C158.5,268.6,158.4,265.3,158.3,263.2z"/>
		<path d="M416.6,174.6c41.6,0,81.8,27.8,94.8,66.5c5.8,17.3,6.5,34.9-4.5,50.9c-17.3,25.1-53.2,27.1-74,4.5
			c-1.3-1.4-2.6-2.7-3.5-4.3c-12.1-21-28.5-38.9-45-56.5c-1.4-1.5-2.5-3.2-3.7-4.7c-8.1-10.3-12.1-21.4-5.9-33.9
			c6.7-13.4,17.8-21.1,33.1-22.5C410.9,174.4,413.8,174.6,416.6,174.6z"/>
		<path d="M336.6,296.2c8.5-0.1,16.5,0.3,24.2,2.3c2.3,0.6,4.6,1.4,6.7,2.4c8.9,4.6,9.3,11.6,1,17.3c-3.2,2.2-6.8,3.7-10.5,5.1
			c-4.1,1.6-8.2,3.3-11.5,6.2c-7.4,6.5-5.5,17.3,3.8,21c7.2,2.8,14.3,1.5,21.5,0c3.2-0.7,7.4-3.3,9.3,1.5c1.9,4.8-2.8,6.4-5.9,7.9
			c-14.7,7.3-30.5,8.9-46.6,7.7c-9.6-0.8-19.3-2.2-28.1-6.6c-2.4-1.2-4.7-2.7-6.9-4.3c-1.6-1.2-2.2-3-1.2-4.9c1-2.1,2.8-2.8,5-2.4
			c3.3,0.7,6.6,1.5,10,2.1c5.2,0.9,10.5,0.9,15.6-1c9.6-3.6,11.7-14.7,4-21.2c-3.4-2.9-7.4-4.7-11.6-6.2c-4-1.4-7.8-3.2-11.3-5.7
			c-7-5-6.8-11.4,0.6-15.9c4.6-2.8,9.8-3.7,15-4.5C325.5,296.4,331.3,296.1,336.6,296.2z"/>
	</g>
</g>
</svg>
