<?xml version="1.0" encoding="UTF-8"?>
<svg xmlns="http://www.w3.org/2000/svg" width="920.561" height="166.463" version="1.1" viewBox="0 0 920.561 166.463">
  <!-- Generator: Adobe Illustrator 28.7.1, SVG Export Plug-In . SVG Version: 1.2.0 Build 142)  -->
  <g>
    <g id="Layer_1">
      <path d="M619.511,47.227c-.01,32.876-.2,65.767.09,98.643.06,6.157-1.15,8.437-7.86,8.234-16.28-.494-16.29-.131-16.29-16.424-.01-39.178.09-78.342-.16-117.52-.03-5.664,1.38-7.653,7.25-7.348,9.41.479,18.87.537,28.27-.015,5.91-.348,7.83,2.091,8.89,7.392,6.18,31.017,12.63,61.991,19.02,92.965.43,2.12,3.01,10.469,3.01,10.469,0,0,.9-9.482.9-14.477-.03-29.885.11-59.77-.14-89.64-.04-5.402,1.43-7.551,6.89-6.825,5.65.755,11.47-1.147,17.05.988.04,44.681.01,89.363.26,134.031.03,5.329-1.93,6.476-6.78,6.302-9.41-.334-18.85-.407-28.25-.015-5.68.247-7.93-1.655-9.03-7.362-6.62-34.343-13.65-68.598-20.55-102.883-.19-.944-.58-1.844-.87-2.759-4.04,1.162-1.63,4.037-1.7,6.244Z"/>
      <path d="M123.714,85.316c-.116-11.515.116-22.144.871-32.789,1.946-27.27,14.013-39.584,41.328-41.763,8.567-.682,16.975.581,25.078,3.006,12.503,3.732,19.865,15.48,20.722,31.874q.566,10.775-9.933,10.746c-1.205,0-2.425.029-3.63-.014-4.574-.131-9.991,1.19-13.476-.828-3.703-2.149-.914-8.059-1.844-12.227-1.336-5.91-4.226-10.223-10.731-11.109-8.466-1.161-14.245,1.423-16.903,7.914-2.033,4.981-2.744,10.31-2.773,15.625-.073,18.384,0,36.783.145,55.166.029,3.122.508,6.274,1.016,9.367,2.048,12.488,16.424,19.081,27.489,12.822,2.236-1.263,2.106-2.977,2.106-4.879.014-7.74-.233-15.494.101-23.22.204-4.676-1.684-6.128-5.924-5.431-5.838.959-8.002-1.002-7.769-7.318.493-13.476.13-13.476,13.897-13.491,7.739,0,15.494.16,23.219-.145,4.226-.174,5.286,1.394,5.257,5.417-.174,20.562-.102,41.138-.116,61.7,0,2.411.29,4.909-3.195,5.446-17.44,2.686-34.822,6.36-52.596,3.572-19.691-3.093-29.536-13.926-31.206-34.052-.988-12.053-1.481-24.149-1.133-35.389Z"/>
      <path d="M10.869,69.517c0-16.932.102-33.863-.087-50.795-.043-4.298,1.089-6.143,5.693-5.852,5.547.348,11.152.421,16.67-.029,5.329-.421,6.346,1.728,6.302,6.622-.232,28.055-.189,56.11-.058,84.165.029,6.752.465,13.548,1.278,20.257.857,7.043,5.46,10.441,12.43,10.775,8.016.392,13.403-2.832,14.928-9.672.944-4.196,1.191-8.625,1.205-12.953.102-30.712.189-61.439-.029-92.151-.043-5.199.915-7.697,6.665-7.014,7.116.842,16.337-3.021,20.882,1.641,4.211,4.313,1.191,13.374,1.162,20.33-.146,27.329.813,54.658-.61,81.972-.218,4.327-.741,8.713-1.757,12.909-4.052,16.598-13.999,24.091-34.009,25.805-8.248.711-16.453.087-24.512-1.757-15.451-3.515-24.802-14.986-25.441-32.76-.625-17.15-.131-34.329-.131-51.493h-.581Z"/>
      <path d="M236.297,81.991c.479-13.766-.682-27.576,1.409-41.313,2.251-14.797,11.094-24.788,25.601-27.968,9.25-2.018,18.514-2.759,28.055-.987,19.279,3.586,28.289,13.112,29.539,32.672,1,15.625,1.04,12.416-11.46,12.648h-.73c-4.82-.116-10.452,1.278-14.227-.769-4.037-2.178-1.394-8.422-2.382-12.822-1.408-6.274-3.862-10.848-11.007-11.414-7.101-.566-11.501,2.788-13.868,9.192-1.365,3.659-1.844,7.522-1.844,11.414,0,20.329.029,40.645.102,60.974.014,4.894,1.045,9.599,3.34,13.984,2.614,5.01,6.621,7.464,12.386,6.985,5.518-.465,8.757-3.674,10.659-8.524,1.815-4.632,1.583-9.54,1.496-14.347-.073-3.892.871-5.736,5.227-5.504,6.278.334,12.588.276,18.868-.014,3.95-.189,4.95,1.35,4.89,5.039-.12,7.043-.63,14.056-2.3,20.881-2.48,10.136-8.81,17.164-18.815,20.345-13.476,4.283-27.184,4.588-40.746.668-14.405-4.168-20.374-15.335-22.639-29.086-2.338-13.955-1.133-28.026-1.554-42.054Z"/>
      <path d="M711.141,83.327c0-21.027.15-42.039-.1-63.066-.06-5.344.84-7.754,7.03-7.478,14.48.653,29,.13,43.46.74,22,.93,34.5,12.46,36.8,34.256,2.48,23.582,2.55,47.281,0,70.878-2.43,22.479-13,32.339-35.58,34.357-15.44,1.38-30.92.422-46.35.988-5,.189-5.4-2.236-5.33-6.186.19-10.877.1-21.738.11-32.615.02-10.629,0-21.259,0-31.889-.01.015-.02.015-.04.015ZM739.921,82.761c0,14.724-.06,29.449.07,44.173.02,2.019-1.42,4.72,2.59,5.533,17.03,3.47,27.81-4.444,28.2-21.782.41-17.614.38-35.243-.01-52.857-.4-17.891-7.19-23.888-25.23-24.12-4.38-.058-5.85,1.002-5.76,5.591.29,14.477.1,28.969.1,43.447.01.015.03.015.04.015Z"/>
      <path d="M862.051,12.957c16.62.029,16.77-.015,20.57,16.67,8.92,39.077,17.52,78.241,26.66,117.274,1.53,6.506-.45,7.508-6.1,7.043-4.8-.392-9.68-.349-14.49.043-4.83.407-6.97-1.277-7.51-6.186-.71-6.462-2.22-12.851-3.15-19.298-.56-3.907-1.94-5.998-6.46-5.736-6.75.392-13.55.305-20.3.087-3.7-.116-5.02,1.365-5.53,4.908-1.03,7.174-2.76,14.231-3.73,21.404-.51,3.718-2.12,5.025-5.65,4.836-2.89-.16-5.81-.044-8.7-.044-15.15,0-15.07.015-11.79-14.434,8.86-39.091,17.82-78.153,26.3-117.331,1.56-7.203,4.31-10.659,11.93-9.309,2.56.451,5.29.058,7.95.073ZM860.491,45.47c-2.39,13.476-4.92,26.922-7.13,40.427-.84,5.141-4.88,11.864-1.77,15.015,3.34,3.369,10.59.538,16.08,1.133,5.18.566,5.48-1.975,4.66-5.997-1.93-9.454-3.69-18.936-5.52-28.404-1.42-7.42-1.57-15.131-4.4-22.247-.64.03-1.28.044-1.92.073Z"/>
      <path d="M560.531,153.9q-14.25.029-16.5-14.361-2.61-16.743-19.4-16.598-14.16.116-16.41,14.202-2.7,16.83-19.65,16.757c-14.4-.072-11.8.596-9.1-11.443,9.02-40.267,18.32-80.476,26.99-120.816,1.56-7.232,4.56-9.425,11.53-8.829,6.73.581,13.54.305,20.29.058,3.92-.145,5.31,1.365,6.16,5.184,9.41,42.416,19.02,84.789,28.6,127.163,1.98,8.712,2.01,8.698-6.72,8.669-1.93.014-3.86.014-5.79.014ZM524.111,47.808c-2.25,12.314-4.36,24.657-6.68,36.957-3.52,18.587-3.24,18.95,15.61,17.236.23-.029.48-.014.72,0,2.55.131,3.39-.973,2.92-3.514-3.4-18.631-6.71-37.29-10.1-56.212-2.31,1.627-2.14,3.703-2.47,5.533Z"/>
      <path d="M387.541,83.908c0-21.506.14-43.027-.11-64.533-.05-5.039,1.38-6.679,6.49-6.534,15.22.435,30.47.058,45.67.639,20.94.798,31.86,11.573,33.34,32.411.63,8.669.86,17.397-1.06,25.993-3.19,14.362-11.67,22.116-26.16,24.164-7.92,1.118-15.85,2.134-23.82,1.51-4.63-.363-5.68,1.336-5.59,5.692.26,14.986-.01,29.972.2,44.958.06,4.342-1.17,6.099-5.72,5.837-5.78-.348-11.61-.392-17.39-.029-4.95.32-6.03-1.699-5.99-6.302.22-21.273.11-42.533.11-63.806h.03ZM423.531,33.824c-.48,0-.97.044-1.45-.029-4.36-.697-6.01.886-5.79,5.504.37,7.71.11,15.45.13,23.19q0,15.189,15.49,13.461c7.84-.871,11.24-4.109,12.19-11.806.37-3.107.5-6.258.63-8.001-.36-18.413-4.16-22.159-21.2-22.319Z"/>
    </g>
  </g>
</svg>