<svg width="53" height="32" viewBox="0 0 53 32" fill="none" xmlns="http://www.w3.org/2000/svg">
<path d="M26.01 11.1319C28.4991 11.1319 30.5273 13.1621 30.5273 15.6492C30.5273 18.1362 28.497 20.1015 26.01 20.1015C23.523 20.1015 21.5577 18.1362 21.5577 15.6492C21.5577 13.1621 23.523 11.1319 26.01 11.1319ZM26.01 0C40.8085 0 51.4794 13.8808 51.4794 13.8808C52.2002 14.7985 52.2002 16.4349 51.4794 17.3505C51.4794 17.3505 40.8064 31.2313 26.01 31.2313C11.2136 31.2313 0.540566 17.3505 0.540566 17.3505C-0.180188 16.4328 -0.180188 14.7964 0.540566 13.8808C0.540566 13.8808 11.2136 0 26.01 0ZM26.01 26.846C32.1657 26.846 37.2068 21.8049 37.2068 15.6492C37.2068 9.49342 32.1657 4.45233 26.01 4.45233C19.8543 4.45233 14.8132 9.49342 14.8132 15.6492C14.8132 21.8049 19.8543 26.846 26.01 26.846Z" fill="#FF0080"/>
</svg>
