<svg width="47" height="53" viewBox="0 0 47 53" fill="none" xmlns="http://www.w3.org/2000/svg">
<path d="M28.0672 13.1784C33.3887 8.73143 30.2549 0 23.2934 0C16.3419 0 13.1882 8.7232 18.5195 13.1784C16.8815 14.5472 15.8372 16.604 15.8372 18.9006V24.6228C15.8372 25.5804 16.6135 26.3569 17.5712 26.3569H29.0156C29.9732 26.3569 30.7496 25.5805 30.7496 24.6228V18.9006C30.7496 16.6039 29.7053 14.5472 28.0672 13.1784Z" fill="#FF0080"/>
<path d="M12.2301 38.8416C17.5516 34.3946 14.4178 25.6632 7.45623 25.6632C0.504757 25.6632 -2.64896 34.3865 2.68238 38.8416C1.04436 40.2104 0 42.2672 0 44.5638V50.286C0 51.2436 0.776338 52.0201 1.73403 52.0201H13.1784C14.136 52.0201 14.9125 51.2437 14.9125 50.286V44.5638C14.9125 42.2672 13.8681 40.2105 12.2301 38.8416Z" fill="#FF0080"/>
<path d="M43.7887 38.8416C49.1102 34.3946 45.9763 25.6632 39.0148 25.6632C32.0633 25.6632 28.9096 34.3865 34.241 38.8416C32.603 40.2104 31.5586 42.2672 31.5586 44.5638V50.286C31.5586 51.2436 32.3349 52.0201 33.2926 52.0201H44.737C45.6946 52.0201 46.4711 51.2437 46.4711 50.286V44.5638C46.4711 42.2672 45.4268 40.2105 43.7887 38.8416Z" fill="#FF0080"/>
<path d="M29.5978 40.2279L24.9697 35.5998V29.0157C24.9697 28.0581 24.1934 27.2816 23.2357 27.2816C22.278 27.2816 21.5017 28.058 21.5017 29.0157V35.5998L16.8736 40.2279C16.1964 40.9051 16.1964 42.003 16.8736 42.6801C17.5507 43.3573 18.6487 43.3573 19.3259 42.6801L23.2357 38.7702L27.1455 42.68C27.8226 43.3571 28.9206 43.3572 29.5978 42.68C30.275 42.0029 30.275 40.9051 29.5978 40.2279Z" fill="#FF0080"/>
</svg>
